# FreeCAD v1.0 build0 Arch module
# https://www.freecad.org
mtllib washer.mtl
o Cut108 (Meshed)
usemtl color_adb5bd
v 562.242371 955.529724 1122.237549
v 558.098999 953.0 1122.237549
v 562.599426 953.0 1122.237549
v 553.0 943.052979 1122.237549
v 551.694946 947.654907 1122.237549
v 550.617432 943.283447 1122.237549
v 553.0 947.555664 1122.237549
v 557.895447 954.36499 1122.237549
v 561.246704 957.882568 1122.237549
v 550.453003 948.067993 1122.237549
v 548.36084 944.081787 1122.237549
v 557.349426 955.632446 1122.237549
v 549.348511 948.770325 1122.237549
v 546.363403 945.400818 1122.237549
v 559.679443 959.900146 1122.237549
v 556.497375 956.718079 1122.237549
v 548.447632 949.719788 1122.237549
v 544.743164 947.162781 1122.237549
v 547.80426 950.859558 1122.237549
v 557.645996 961.446838 1122.237549
v 555.395996 957.549683 1122.237549
v 547.456848 952.12146 1122.237549
v 543.595764 949.263489 1122.237549
v 555.283203 962.418518 1122.237549
v 554.118469 958.071838 1122.237549
v 547.42627 953.429932 1122.237549
v 542.988892 951.578979 1122.237549
v 552.749939 962.749817 1122.237549
v 552.749939 958.249817 1122.237549
v 547.714294 954.706726 1122.237549
v 542.958557 953.972473 1122.237549
v 550.374023 962.458984 1122.237549
v 551.450928 958.089722 1122.237549
v 543.506348 956.302551 1122.237549
v 548.303711 955.875305 1122.237549
v 548.138428 961.603638 1122.237549
v 550.229675 957.619019 1122.237549
v 544.600098 958.431763 1122.237549
v 549.159241 956.865845 1122.237549
v 546.17511 960.234253 1122.237549
v 553.0 943.052979 1120.787476
v 553.0 947.555664 1120.787476
v 558.098999 953.0 1120.787476
v 562.242371 955.529724 1120.787476
v 562.599426 953.0 1120.787476
v 551.694946 947.654907 1120.787476
v 550.617432 943.283447 1120.787476
v 557.895447 954.36499 1120.787476
v 561.246704 957.882568 1120.787476
v 550.453003 948.067993 1120.787476
v 548.36084 944.081787 1120.787476
v 557.349426 955.632446 1120.787476
v 549.348511 948.770325 1120.787476
v 546.363403 945.400818 1120.787476
v 559.679443 959.900146 1120.787476
v 556.497375 956.718079 1120.787476
v 548.447632 949.719788 1120.787476
v 544.743164 947.162781 1120.787476
v 547.80426 950.859558 1120.787476
v 557.645996 961.446838 1120.787476
v 555.395996 957.549683 1120.787476
v 543.595764 949.263489 1120.787476
v 547.456848 952.12146 1120.787476
v 555.283203 962.418518 1120.787476
v 554.118469 958.071838 1120.787476
v 542.988892 951.578979 1120.787476
v 547.42627 953.429932 1120.787476
v 552.749939 962.749817 1120.787476
v 552.749939 958.249817 1120.787476
v 542.958557 953.972473 1120.787476
v 547.714294 954.706726 1120.787476
v 550.374023 962.458984 1120.787476
v 551.450928 958.089722 1120.787476
v 543.506348 956.302612 1120.787476
v 548.303711 955.875305 1120.787476
v 548.138428 961.603638 1120.787476
v 550.229675 957.619019 1120.787476
v 544.600098 958.431763 1120.787476
v 549.159241 956.865845 1120.787476
v 546.17511 960.234253 1120.787476
vn 0.0 0.0 1.0
vn 0.0 0.0 1.0
vn 0.0 0.0 1.0
vn 0.0 0.0 1.0
vn 0.0 0.0 1.0
vn 0.0 0.0 1.0
vn 0.0 0.0 1.0
vn 0.0 0.0 1.0
vn 0.0 -0.0 1.0
vn 0.0 0.0 1.0
vn 0.0 0.0 1.0
vn 0.0 0.0 1.0
vn 0.0 0.0 1.0
vn 0.0 0.0 1.0
vn 0.0 0.0 1.0
vn 0.0 -0.0 1.0
vn 0.0 0.0 1.0
vn 0.0 0.0 1.0
vn 0.0 0.0 1.0
vn 0.0 0.0 1.0
vn 0.0 0.0 1.0
vn 0.0 0.0 1.0
vn 0.0 0.0 1.0
vn 0.0 0.0 1.0
vn 0.0 0.0 1.0
vn 0.0 0.0 1.0
vn 0.0 0.0 1.0
vn 0.0 0.0 1.0
vn 0.0 0.0 1.0
vn 0.0 0.0 1.0
vn 0.0 0.0 1.0
vn 0.0 0.0 1.0
vn 0.0 0.0 1.0
vn 0.0 0.0 1.0
vn 0.0 0.0 1.0
vn 0.0 0.0 1.0
vn 0.0 0.0 1.0
vn 0.0 0.0 1.0
vn 1.0 0.0 0.0
vn 1.0 -0.0 0.0
vn 0.0 0.0 -1.0
vn 0.0 -0.0 -1.0
vn 0.0 0.0 -1.0
vn 0.0 0.0 -1.0
vn 0.0 -0.0 -1.0
vn 0.0 -0.0 -1.0
vn 0.0 0.0 -1.0
vn 0.0 0.0 -1.0
vn 0.0 0.0 -1.0
vn 0.0 -0.0 -1.0
vn 0.0 -0.0 -1.0
vn 0.0 0.0 -1.0
vn 0.0 -0.0 -1.0
vn 0.0 0.0 -1.0
vn 0.0 -0.0 -1.0
vn 0.0 0.0 -1.0
vn 0.0 -0.0 -1.0
vn 0.0 0.0 -1.0
vn 0.0 0.0 -1.0
vn 0.0 -0.0 -1.0
vn 0.0 0.0 -1.0
vn 0.0 0.0 -1.0
vn 0.0 0.0 -1.0
vn 0.0 0.0 -1.0
vn 0.0 0.0 -1.0
vn 0.0 0.0 -1.0
vn 0.0 0.0 -1.0
vn 0.0 0.0 -1.0
vn 0.0 0.0 -1.0
vn 0.0 -0.0 -1.0
vn 0.0 0.0 -1.0
vn 0.0 0.0 -1.0
vn 0.0 0.0 -1.0
vn 0.0 -0.0 -1.0
vn 0.0 0.0 -1.0
vn 0.0 0.0 -1.0
vn 0.0 -0.0 -1.0
vn 0.0 0.0 -1.0
vn 0.0 -1.0 0.0
vn 0.0 -1.0 0.0
vn -0.096282 -0.995354 0.0
vn -0.333524 -0.942742 0.0
vn -0.096282 -0.995354 0.0
vn -0.551053 -0.834471 0.0
vn -0.333524 -0.942742 0.0
vn -0.736091 -0.676883 0.0
vn -0.551053 -0.834471 0.0
vn -0.877622 -0.479354 0.0
vn -0.736091 -0.676883 0.0
vn -0.967328 -0.253529 0.0
vn -0.877622 -0.479354 0.0
vn -0.99992 -0.012673 0.0
vn -0.967328 -0.253529 0.0
vn -0.97346 0.228856 0.0
vn -0.99992 -0.012673 0.0
vn -0.889504 0.456927 1.9e-05
vn -0.973462 0.22885 1e-05
vn -0.753025 0.657992 0.0
vn -0.889499 0.456938 0.0
vn -0.572077 0.8202 0.0
vn -0.753025 0.657992 0.0
vn -0.357342 0.933974 0.0
vn -0.572077 0.8202 0.0
vn -0.121502 0.992591 0.0
vn -0.357342 0.933974 0.0
vn 0.129675 0.991557 -0.0
vn -0.121502 0.992591 0.0
vn 0.129675 0.991557 -0.0
vn 0.380336 0.924848 -0.0
vn 0.380336 0.924848 -0.0
vn 0.605399 0.795922 -0.0
vn 0.789725 0.613461 -0.0
vn 0.605399 0.795922 -0.0
vn 0.920935 0.389717 -0.0
vn 0.789725 0.613461 -0.0
vn 0.990186 0.139759 -0.0
vn 0.920935 0.389717 -0.0
vn 0.990186 0.139759 -0.0
vn 0.075826 0.997121 0.0
vn 0.315612 0.948888 0.0
vn 0.075826 0.997121 0.0
vn 0.536589 0.843844 0.0
vn 0.315612 0.948888 0.0
vn 0.725423 0.688303 0.0
vn 0.536589 0.843844 0.0
vn 0.87084 0.491567 0.0
vn 0.725423 0.688303 0.0
vn 0.964129 0.265433 0.0
vn 0.87084 0.491567 0.0
vn 0.999727 0.023363 0.0
vn 0.964129 0.265433 0.0
vn 0.975488 -0.220055 0.0
vn 0.999727 0.023363 0.0
vn 0.892855 -0.450345 0.0
vn 0.975488 -0.220055 0.0
vn 0.756799 -0.653648 0.0
vn 0.892855 -0.450345 0.0
vn 0.756799 -0.653648 0.0
vn 0.359638 -0.933092 0.0
vn 0.575445 -0.817841 0.0
vn 0.575445 -0.817841 0.0
vn 0.359638 -0.933092 0.0
vn 0.122318 -0.992491 0.0
vn -0.128965 -0.991649 -0.0
vn 0.122318 -0.992491 0.0
vn -0.128965 -0.991649 0.0
vn -0.378342 -0.925666 -0.0
vn -0.378342 -0.925666 0.0
vn -0.60258 -0.798059 -0.0
vn -0.60258 -0.798059 0.0
vn -0.786651 -0.617398 -0.0
vn -0.786651 -0.617398 0.0
vn -0.918402 -0.395648 -0.0
vn -0.918402 -0.395648 0.0
vn -0.989063 -0.147493 -0.0
vn -0.989063 -0.147493 0.0
f 1//1 2//1 3//1 
f 4//2 5//2 6//2 
f 7//3 5//3 4//3 
f 1//4 8//4 2//4 
f 1//5 9//5 8//5 
f 6//6 10//6 11//6 
f 5//7 10//7 6//7 
f 9//8 12//8 8//8 
f 11//9 13//9 14//9 
f 10//10 13//10 11//10 
f 9//11 15//11 12//11 
f 15//12 16//12 12//12 
f 13//13 17//13 14//13 
f 17//14 18//14 14//14 
f 17//15 19//15 18//15 
f 16//16 20//16 21//16 
f 15//17 20//17 16//17 
f 22//18 23//18 19//18 
f 19//19 23//19 18//19 
f 21//20 24//20 25//20 
f 20//21 24//21 21//21 
f 26//22 27//22 22//22 
f 22//23 27//23 23//23 
f 25//24 28//24 29//24 
f 24//25 28//25 25//25 
f 30//26 31//26 26//26 
f 26//27 31//27 27//27 
f 28//28 32//28 29//28 
f 29//29 32//29 33//29 
f 30//30 34//30 31//30 
f 35//31 34//31 30//31 
f 32//32 36//32 33//32 
f 33//33 36//33 37//33 
f 35//34 38//34 34//34 
f 39//35 38//35 35//35 
f 36//36 40//36 37//36 
f 39//37 40//37 38//37 
f 37//38 40//38 39//38 
f 4//39 41//39 42//39 
f 4//40 42//40 7//40 
f 43//41 44//41 45//41 
f 46//42 41//42 47//42 
f 46//43 42//43 41//43 
f 48//44 44//44 43//44 
f 49//45 44//45 48//45 
f 50//46 47//46 51//46 
f 50//47 46//47 47//47 
f 52//48 49//48 48//48 
f 53//49 51//49 54//49 
f 53//50 50//50 51//50 
f 55//51 49//51 52//51 
f 56//52 55//52 52//52 
f 57//53 53//53 54//53 
f 58//54 57//54 54//54 
f 59//55 57//55 58//55 
f 60//56 56//56 61//56 
f 60//57 55//57 56//57 
f 62//58 63//58 59//58 
f 62//59 59//59 58//59 
f 64//60 61//60 65//60 
f 64//61 60//61 61//61 
f 66//62 67//62 63//62 
f 66//63 63//63 62//63 
f 68//64 65//64 69//64 
f 68//65 64//65 65//65 
f 70//66 71//66 67//66 
f 70//67 67//67 66//67 
f 72//68 69//68 73//68 
f 72//69 68//69 69//69 
f 74//70 71//70 70//70 
f 74//71 75//71 71//71 
f 76//72 72//72 73//72 
f 76//73 73//73 77//73 
f 78//74 75//74 74//74 
f 78//75 79//75 75//75 
f 80//76 76//76 77//76 
f 80//77 79//77 78//77 
f 80//78 77//78 79//78 
f 45//79 3//79 43//79 
f 43//80 3//80 2//80 
f 41//81 4//81 6//81 
f 47//82 6//82 11//82 
f 47//83 41//83 6//83 
f 51//84 11//84 14//84 
f 51//85 47//85 11//85 
f 54//86 14//86 18//86 
f 54//87 51//87 14//87 
f 58//88 18//88 23//88 
f 58//89 54//89 18//89 
f 62//90 23//90 27//90 
f 62//91 58//91 23//91 
f 66//92 27//92 31//92 
f 66//93 62//93 27//93 
f 70//94 31//94 34//94 
f 70//95 66//95 31//95 
f 74//96 34//96 38//96 
f 74//97 70//97 34//97 
f 78//98 38//98 40//98 
f 78//99 74//99 38//99 
f 80//100 40//100 36//100 
f 80//101 78//101 40//101 
f 76//102 36//102 32//102 
f 76//103 80//103 36//103 
f 72//104 32//104 28//104 
f 72//105 76//105 32//105 
f 68//106 28//106 24//106 
f 68//107 72//107 28//107 
f 64//108 68//108 24//108 
f 64//109 24//109 20//109 
f 60//110 64//110 20//110 
f 60//111 20//111 15//111 
f 55//112 15//112 9//112 
f 55//113 60//113 15//113 
f 49//114 9//114 1//114 
f 49//115 55//115 9//115 
f 44//116 1//116 3//116 
f 44//117 49//117 1//117 
f 45//118 44//118 3//118 
f 7//119 42//119 5//119 
f 5//120 46//120 10//120 
f 42//121 46//121 5//121 
f 10//122 50//122 13//122 
f 46//123 50//123 10//123 
f 13//124 53//124 17//124 
f 50//125 53//125 13//125 
f 17//126 57//126 19//126 
f 53//127 57//127 17//127 
f 19//128 59//128 22//128 
f 57//129 59//129 19//129 
f 22//130 63//130 26//130 
f 59//131 63//131 22//131 
f 26//132 67//132 30//132 
f 63//133 67//133 26//133 
f 30//134 71//134 35//134 
f 67//135 71//135 30//135 
f 35//136 75//136 39//136 
f 71//137 75//137 35//137 
f 75//138 79//138 39//138 
f 37//139 77//139 33//139 
f 39//140 77//140 37//140 
f 79//141 77//141 39//141 
f 77//142 73//142 33//142 
f 33//143 69//143 29//143 
f 29//144 69//144 25//144 
f 73//145 69//145 33//145 
f 69//146 65//146 25//146 
f 25//147 65//147 21//147 
f 65//148 61//148 21//148 
f 21//149 61//149 16//149 
f 61//150 56//150 16//150 
f 16//151 56//151 12//151 
f 56//152 52//152 12//152 
f 12//153 52//153 8//153 
f 52//154 48//154 8//154 
f 8//155 48//155 2//155 
f 48//156 43//156 2//156 
