ISO-10303-21;
HEADER;
FILE_DESCRIPTION(('FreeCAD Model'),'2;1');
FILE_NAME('Open CASCADE Shape Model','2026-06-27T21:01:00',(''),(''),
  'Open CASCADE STEP processor 7.8','FreeCAD','Unknown');
FILE_SCHEMA(('AUTOMOTIVE_DESIGN { 1 0 10303 214 1 1 1 1 }'));
ENDSEC;
DATA;
#1 = APPLICATION_PROTOCOL_DEFINITION('international standard',
  'automotive_design',2000,#2);
#2 = APPLICATION_CONTEXT(
  'core data for automotive mechanical design processes');
#3 = SHAPE_DEFINITION_REPRESENTATION(#4,#10);
#4 = PRODUCT_DEFINITION_SHAPE('','',#5);
#5 = PRODUCT_DEFINITION('design','',#6,#9);
#6 = PRODUCT_DEFINITION_FORMATION('','',#7);
#7 = PRODUCT('X1 Bouteille Krin Lemon 1.5L',
  'X1 Bouteille Krin Lemon 1.5L','',(#8));
#8 = PRODUCT_CONTEXT('',#2,'mechanical');
#9 = PRODUCT_DEFINITION_CONTEXT('part definition',#2,'design');
#10 = ADVANCED_BREP_SHAPE_REPRESENTATION('',(#11,#15),#974);
#11 = AXIS2_PLACEMENT_3D('',#12,#13,#14);
#12 = CARTESIAN_POINT('',(0.,0.,0.));
#13 = DIRECTION('',(0.,0.,1.));
#14 = DIRECTION('',(1.,0.,-0.));
#15 = MANIFOLD_SOLID_BREP('',#16);
#16 = CLOSED_SHELL('',(#17,#50,#80,#100,#125,#150,#180,#205,#214,#238,
    #258,#283,#308,#357,#415,#464,#486,#538,#590,#629,#665,#717,#733,
    #753,#785,#810,#830,#855,#880,#910,#935,#965));
#17 = ADVANCED_FACE('',(#18),#45,.T.);
#18 = FACE_BOUND('',#19,.F.);
#19 = EDGE_LOOP('',(#20,#30,#37,#38));
#20 = ORIENTED_EDGE('',*,*,#21,.F.);
#21 = EDGE_CURVE('',#22,#24,#26,.T.);
#22 = VERTEX_POINT('',#23);
#23 = CARTESIAN_POINT('',(-11.37,0.,0.));
#24 = VERTEX_POINT('',#25);
#25 = CARTESIAN_POINT('',(-13.,-4.,0.));
#26 = LINE('',#27,#28);
#27 = CARTESIAN_POINT('',(-11.37,0.,0.));
#28 = VECTOR('',#29,1.);
#29 = DIRECTION('',(-0.377370426373,-0.926062396007,0.));
#30 = ORIENTED_EDGE('',*,*,#31,.T.);
#31 = EDGE_CURVE('',#22,#22,#32,.T.);
#32 = CIRCLE('',#33,11.37);
#33 = AXIS2_PLACEMENT_3D('',#34,#35,#36);
#34 = CARTESIAN_POINT('',(0.,0.,0.));
#35 = DIRECTION('',(0.,1.,-0.));
#36 = DIRECTION('',(-1.,0.,0.));
#37 = ORIENTED_EDGE('',*,*,#21,.T.);
#38 = ORIENTED_EDGE('',*,*,#39,.F.);
#39 = EDGE_CURVE('',#24,#24,#40,.T.);
#40 = CIRCLE('',#41,13.);
#41 = AXIS2_PLACEMENT_3D('',#42,#43,#44);
#42 = CARTESIAN_POINT('',(0.,-4.,0.));
#43 = DIRECTION('',(0.,1.,-0.));
#44 = DIRECTION('',(-1.,0.,0.));
#45 = CONICAL_SURFACE('',#46,11.37,0.386955126926);
#46 = AXIS2_PLACEMENT_3D('',#47,#48,#49);
#47 = CARTESIAN_POINT('',(0.,0.,0.));
#48 = DIRECTION('',(-0.,-1.,-0.));
#49 = DIRECTION('',(-1.,0.,0.));
#50 = ADVANCED_FACE('',(#51),#71,.F.);
#51 = FACE_BOUND('',#52,.F.);
#52 = EDGE_LOOP('',(#53,#54,#63,#70));
#53 = ORIENTED_EDGE('',*,*,#39,.T.);
#54 = ORIENTED_EDGE('',*,*,#55,.T.);
#55 = EDGE_CURVE('',#24,#56,#58,.T.);
#56 = VERTEX_POINT('',#57);
#57 = CARTESIAN_POINT('',(-44.4,-55.5,0.));
#58 = B_SPLINE_CURVE_WITH_KNOTS('',3,(#59,#60,#61,#62),.UNSPECIFIED.,.F.
  ,.F.,(4,4),(0.,1.),.PIECEWISE_BEZIER_KNOTS.);
#59 = CARTESIAN_POINT('',(-13.,-4.,0.));
#60 = CARTESIAN_POINT('',(-43.047043,-23.999706,0.));
#61 = CARTESIAN_POINT('',(-43.714832,-36.674423,0.));
#62 = CARTESIAN_POINT('',(-44.4,-55.5,0.));
#63 = ORIENTED_EDGE('',*,*,#64,.F.);
#64 = EDGE_CURVE('',#56,#56,#65,.T.);
#65 = CIRCLE('',#66,44.4);
#66 = AXIS2_PLACEMENT_3D('',#67,#68,#69);
#67 = CARTESIAN_POINT('',(0.,-55.5,0.));
#68 = DIRECTION('',(0.,1.,-0.));
#69 = DIRECTION('',(-1.,0.,0.));
#70 = ORIENTED_EDGE('',*,*,#55,.F.);
#71 = SURFACE_OF_REVOLUTION('',#72,#77);
#72 = B_SPLINE_CURVE_WITH_KNOTS('',3,(#73,#74,#75,#76),.UNSPECIFIED.,.F.
  ,.F.,(4,4),(0.,1.),.PIECEWISE_BEZIER_KNOTS.);
#73 = CARTESIAN_POINT('',(-13.,-4.,0.));
#74 = CARTESIAN_POINT('',(-43.047043,-23.999706,0.));
#75 = CARTESIAN_POINT('',(-43.714832,-36.674423,0.));
#76 = CARTESIAN_POINT('',(-44.4,-55.5,0.));
#77 = AXIS1_PLACEMENT('',#78,#79);
#78 = CARTESIAN_POINT('',(0.,0.,0.));
#79 = DIRECTION('',(0.,1.,0.));
#80 = ADVANCED_FACE('',(#81,#92),#95,.F.);
#81 = FACE_BOUND('',#82,.F.);
#82 = EDGE_LOOP('',(#83));
#83 = ORIENTED_EDGE('',*,*,#84,.T.);
#84 = EDGE_CURVE('',#85,#85,#87,.T.);
#85 = VERTEX_POINT('',#86);
#86 = CARTESIAN_POINT('',(-16.5,0.,0.));
#87 = CIRCLE('',#88,16.5);
#88 = AXIS2_PLACEMENT_3D('',#89,#90,#91);
#89 = CARTESIAN_POINT('',(0.,0.,0.));
#90 = DIRECTION('',(0.,1.,-0.));
#91 = DIRECTION('',(-1.,0.,0.));
#92 = FACE_BOUND('',#93,.F.);
#93 = EDGE_LOOP('',(#94));
#94 = ORIENTED_EDGE('',*,*,#31,.F.);
#95 = PLANE('',#96);
#96 = AXIS2_PLACEMENT_3D('',#97,#98,#99);
#97 = CARTESIAN_POINT('',(0.,0.,0.));
#98 = DIRECTION('',(0.,1.,0.));
#99 = DIRECTION('',(-1.,0.,0.));
#100 = ADVANCED_FACE('',(#101),#120,.T.);
#101 = FACE_BOUND('',#102,.T.);
#102 = EDGE_LOOP('',(#103,#112,#118,#119));
#103 = ORIENTED_EDGE('',*,*,#104,.T.);
#104 = EDGE_CURVE('',#105,#105,#107,.T.);
#105 = VERTEX_POINT('',#106);
#106 = CARTESIAN_POINT('',(-44.4,-265.353546,0.));
#107 = CIRCLE('',#108,44.4);
#108 = AXIS2_PLACEMENT_3D('',#109,#110,#111);
#109 = CARTESIAN_POINT('',(0.,-265.353546,0.));
#110 = DIRECTION('',(0.,1.,-0.));
#111 = DIRECTION('',(-1.,0.,0.));
#112 = ORIENTED_EDGE('',*,*,#113,.T.);
#113 = EDGE_CURVE('',#105,#56,#114,.T.);
#114 = LINE('',#115,#116);
#115 = CARTESIAN_POINT('',(-44.4,-265.353546,0.));
#116 = VECTOR('',#117,1.);
#117 = DIRECTION('',(0.,1.,0.));
#118 = ORIENTED_EDGE('',*,*,#64,.F.);
#119 = ORIENTED_EDGE('',*,*,#113,.F.);
#120 = CYLINDRICAL_SURFACE('',#121,44.4);
#121 = AXIS2_PLACEMENT_3D('',#122,#123,#124);
#122 = CARTESIAN_POINT('',(0.,-265.353546,0.));
#123 = DIRECTION('',(0.,1.,0.));
#124 = DIRECTION('',(-1.,0.,0.));
#125 = ADVANCED_FACE('',(#126),#145,.T.);
#126 = FACE_BOUND('',#127,.T.);
#127 = EDGE_LOOP('',(#128,#129,#137,#144));
#128 = ORIENTED_EDGE('',*,*,#84,.T.);
#129 = ORIENTED_EDGE('',*,*,#130,.T.);
#130 = EDGE_CURVE('',#85,#131,#133,.T.);
#131 = VERTEX_POINT('',#132);
#132 = CARTESIAN_POINT('',(-16.5,1.14419780457,0.));
#133 = LINE('',#134,#135);
#134 = CARTESIAN_POINT('',(-16.5,0.,0.));
#135 = VECTOR('',#136,1.);
#136 = DIRECTION('',(0.,1.,0.));
#137 = ORIENTED_EDGE('',*,*,#138,.F.);
#138 = EDGE_CURVE('',#131,#131,#139,.T.);
#139 = CIRCLE('',#140,16.5);
#140 = AXIS2_PLACEMENT_3D('',#141,#142,#143);
#141 = CARTESIAN_POINT('',(0.,1.14419780457,0.));
#142 = DIRECTION('',(0.,1.,-0.));
#143 = DIRECTION('',(-1.,0.,0.));
#144 = ORIENTED_EDGE('',*,*,#130,.F.);
#145 = CYLINDRICAL_SURFACE('',#146,16.5);
#146 = AXIS2_PLACEMENT_3D('',#147,#148,#149);
#147 = CARTESIAN_POINT('',(0.,0.,0.));
#148 = DIRECTION('',(0.,1.,0.));
#149 = DIRECTION('',(-1.,0.,0.));
#150 = ADVANCED_FACE('',(#151),#171,.F.);
#151 = FACE_BOUND('',#152,.F.);
#152 = EDGE_LOOP('',(#153,#154,#163,#170));
#153 = ORIENTED_EDGE('',*,*,#104,.T.);
#154 = ORIENTED_EDGE('',*,*,#155,.T.);
#155 = EDGE_CURVE('',#105,#156,#158,.T.);
#156 = VERTEX_POINT('',#157);
#157 = CARTESIAN_POINT('',(-33.,-285.519043,0.));
#158 = B_SPLINE_CURVE_WITH_KNOTS('',3,(#159,#160,#161,#162),
  .UNSPECIFIED.,.F.,.F.,(4,4),(0.,1.),.PIECEWISE_BEZIER_KNOTS.);
#159 = CARTESIAN_POINT('',(-44.4,-265.353546,0.));
#160 = CARTESIAN_POINT('',(-44.4,-269.178467,0.));
#161 = CARTESIAN_POINT('',(-40.245365,-285.519043,0.));
#162 = CARTESIAN_POINT('',(-33.,-285.519043,0.));
#163 = ORIENTED_EDGE('',*,*,#164,.F.);
#164 = EDGE_CURVE('',#156,#156,#165,.T.);
#165 = CIRCLE('',#166,33.);
#166 = AXIS2_PLACEMENT_3D('',#167,#168,#169);
#167 = CARTESIAN_POINT('',(0.,-285.519043,0.));
#168 = DIRECTION('',(0.,1.,-0.));
#169 = DIRECTION('',(-1.,0.,0.));
#170 = ORIENTED_EDGE('',*,*,#155,.F.);
#171 = SURFACE_OF_REVOLUTION('',#172,#177);
#172 = B_SPLINE_CURVE_WITH_KNOTS('',3,(#173,#174,#175,#176),
  .UNSPECIFIED.,.F.,.F.,(4,4),(0.,1.),.PIECEWISE_BEZIER_KNOTS.);
#173 = CARTESIAN_POINT('',(-44.4,-265.353546,0.));
#174 = CARTESIAN_POINT('',(-44.4,-269.178467,0.));
#175 = CARTESIAN_POINT('',(-40.245365,-285.519043,0.));
#176 = CARTESIAN_POINT('',(-33.,-285.519043,0.));
#177 = AXIS1_PLACEMENT('',#178,#179);
#178 = CARTESIAN_POINT('',(0.,0.,0.));
#179 = DIRECTION('',(0.,1.,0.));
#180 = ADVANCED_FACE('',(#181),#200,.T.);
#181 = FACE_BOUND('',#182,.T.);
#182 = EDGE_LOOP('',(#183,#184,#192,#199));
#183 = ORIENTED_EDGE('',*,*,#138,.T.);
#184 = ORIENTED_EDGE('',*,*,#185,.T.);
#185 = EDGE_CURVE('',#131,#186,#188,.T.);
#186 = VERTEX_POINT('',#187);
#187 = CARTESIAN_POINT('',(-13.06426528545,2.064800146739,0.));
#188 = LINE('',#189,#190);
#189 = CARTESIAN_POINT('',(-16.5,1.14419780457,0.));
#190 = VECTOR('',#191,1.);
#191 = DIRECTION('',(0.965925826289,0.258819045103,0.));
#192 = ORIENTED_EDGE('',*,*,#193,.F.);
#193 = EDGE_CURVE('',#186,#186,#194,.T.);
#194 = CIRCLE('',#195,13.064265285459);
#195 = AXIS2_PLACEMENT_3D('',#196,#197,#198);
#196 = CARTESIAN_POINT('',(0.,2.064800146739,0.));
#197 = DIRECTION('',(0.,1.,-0.));
#198 = DIRECTION('',(-1.,0.,0.));
#199 = ORIENTED_EDGE('',*,*,#185,.F.);
#200 = CONICAL_SURFACE('',#201,16.5,1.308996938996);
#201 = AXIS2_PLACEMENT_3D('',#202,#203,#204);
#202 = CARTESIAN_POINT('',(0.,1.14419780457,0.));
#203 = DIRECTION('',(-0.,-1.,-0.));
#204 = DIRECTION('',(-1.,0.,0.));
#205 = ADVANCED_FACE('',(#206),#209,.F.);
#206 = FACE_BOUND('',#207,.F.);
#207 = EDGE_LOOP('',(#208));
#208 = ORIENTED_EDGE('',*,*,#164,.T.);
#209 = PLANE('',#210);
#210 = AXIS2_PLACEMENT_3D('',#211,#212,#213);
#211 = CARTESIAN_POINT('',(0.,-285.519043,0.));
#212 = DIRECTION('',(0.,1.,0.));
#213 = DIRECTION('',(-1.,0.,0.));
#214 = ADVANCED_FACE('',(#215),#233,.T.);
#215 = FACE_BOUND('',#216,.F.);
#216 = EDGE_LOOP('',(#217,#226,#231,#232));
#217 = ORIENTED_EDGE('',*,*,#218,.T.);
#218 = EDGE_CURVE('',#219,#219,#221,.T.);
#219 = VERTEX_POINT('',#220);
#220 = CARTESIAN_POINT('',(-13.06426528545,7.2,0.));
#221 = CIRCLE('',#222,13.064265285459);
#222 = AXIS2_PLACEMENT_3D('',#223,#224,#225);
#223 = CARTESIAN_POINT('',(0.,7.2,0.));
#224 = DIRECTION('',(0.,1.,-0.));
#225 = DIRECTION('',(-1.,0.,0.));
#226 = ORIENTED_EDGE('',*,*,#227,.T.);
#227 = EDGE_CURVE('',#219,#186,#228,.T.);
#228 = B_SPLINE_CURVE_WITH_KNOTS('',1,(#229,#230),.UNSPECIFIED.,.F.,.F.,
  (2,2),(-3.17,1.965199853261),.PIECEWISE_BEZIER_KNOTS.);
#229 = CARTESIAN_POINT('',(-13.06426528545,7.2,0.));
#230 = CARTESIAN_POINT('',(-13.06426528545,2.064800146739,0.));
#231 = ORIENTED_EDGE('',*,*,#193,.F.);
#232 = ORIENTED_EDGE('',*,*,#227,.F.);
#233 = CYLINDRICAL_SURFACE('',#234,13.064265285459);
#234 = AXIS2_PLACEMENT_3D('',#235,#236,#237);
#235 = CARTESIAN_POINT('',(0.,4.03,0.));
#236 = DIRECTION('',(-0.,-1.,-0.));
#237 = DIRECTION('',(-1.,0.,0.));
#238 = ADVANCED_FACE('',(#239,#242),#253,.F.);
#239 = FACE_BOUND('',#240,.T.);
#240 = EDGE_LOOP('',(#241));
#241 = ORIENTED_EDGE('',*,*,#218,.T.);
#242 = FACE_BOUND('',#243,.T.);
#243 = EDGE_LOOP('',(#244));
#244 = ORIENTED_EDGE('',*,*,#245,.F.);
#245 = EDGE_CURVE('',#246,#246,#248,.T.);
#246 = VERTEX_POINT('',#247);
#247 = CARTESIAN_POINT('',(-14.,7.2,0.));
#248 = CIRCLE('',#249,14.);
#249 = AXIS2_PLACEMENT_3D('',#250,#251,#252);
#250 = CARTESIAN_POINT('',(0.,7.2,0.));
#251 = DIRECTION('',(0.,1.,-0.));
#252 = DIRECTION('',(-1.,0.,0.));
#253 = PLANE('',#254);
#254 = AXIS2_PLACEMENT_3D('',#255,#256,#257);
#255 = CARTESIAN_POINT('',(0.,7.2,0.));
#256 = DIRECTION('',(0.,1.,0.));
#257 = DIRECTION('',(-1.,-0.,-0.));
#258 = ADVANCED_FACE('',(#259),#278,.T.);
#259 = FACE_BOUND('',#260,.T.);
#260 = EDGE_LOOP('',(#261,#262,#270,#277));
#261 = ORIENTED_EDGE('',*,*,#245,.T.);
#262 = ORIENTED_EDGE('',*,*,#263,.T.);
#263 = EDGE_CURVE('',#246,#264,#266,.T.);
#264 = VERTEX_POINT('',#265);
#265 = CARTESIAN_POINT('',(-14.,7.79,0.));
#266 = LINE('',#267,#268);
#267 = CARTESIAN_POINT('',(-14.,7.2,0.));
#268 = VECTOR('',#269,1.);
#269 = DIRECTION('',(0.,1.,0.));
#270 = ORIENTED_EDGE('',*,*,#271,.F.);
#271 = EDGE_CURVE('',#264,#264,#272,.T.);
#272 = CIRCLE('',#273,14.);
#273 = AXIS2_PLACEMENT_3D('',#274,#275,#276);
#274 = CARTESIAN_POINT('',(0.,7.79,0.));
#275 = DIRECTION('',(0.,1.,-0.));
#276 = DIRECTION('',(-1.,0.,0.));
#277 = ORIENTED_EDGE('',*,*,#263,.F.);
#278 = CYLINDRICAL_SURFACE('',#279,14.);
#279 = AXIS2_PLACEMENT_3D('',#280,#281,#282);
#280 = CARTESIAN_POINT('',(0.,7.2,0.));
#281 = DIRECTION('',(0.,1.,0.));
#282 = DIRECTION('',(-1.,0.,0.));
#283 = ADVANCED_FACE('',(#284),#303,.T.);
#284 = FACE_BOUND('',#285,.T.);
#285 = EDGE_LOOP('',(#286,#287,#295,#302));
#286 = ORIENTED_EDGE('',*,*,#271,.T.);
#287 = ORIENTED_EDGE('',*,*,#288,.T.);
#288 = EDGE_CURVE('',#264,#289,#291,.T.);
#289 = VERTEX_POINT('',#290);
#290 = CARTESIAN_POINT('',(-12.1,9.384289299237,0.));
#291 = LINE('',#292,#293);
#292 = CARTESIAN_POINT('',(-14.,7.79,0.));
#293 = VECTOR('',#294,1.);
#294 = DIRECTION('',(0.766044443119,0.642787609687,0.));
#295 = ORIENTED_EDGE('',*,*,#296,.F.);
#296 = EDGE_CURVE('',#289,#289,#297,.T.);
#297 = CIRCLE('',#298,12.1);
#298 = AXIS2_PLACEMENT_3D('',#299,#300,#301);
#299 = CARTESIAN_POINT('',(0.,9.384289299237,0.));
#300 = DIRECTION('',(0.,1.,-0.));
#301 = DIRECTION('',(-1.,0.,0.));
#302 = ORIENTED_EDGE('',*,*,#288,.F.);
#303 = CONICAL_SURFACE('',#304,14.,0.872664625997);
#304 = AXIS2_PLACEMENT_3D('',#305,#306,#307);
#305 = CARTESIAN_POINT('',(0.,7.79,0.));
#306 = DIRECTION('',(-0.,-1.,-0.));
#307 = DIRECTION('',(-1.,0.,0.));
#308 = ADVANCED_FACE('',(#309),#352,.T.);
#309 = FACE_BOUND('',#310,.T.);
#310 = EDGE_LOOP('',(#311,#319,#320,#321,#329,#337));
#311 = ORIENTED_EDGE('',*,*,#312,.F.);
#312 = EDGE_CURVE('',#289,#313,#315,.T.);
#313 = VERTEX_POINT('',#314);
#314 = CARTESIAN_POINT('',(-12.10000014944,12.635524457059,
    -1.4691919E-08));
#315 = LINE('',#316,#317);
#316 = CARTESIAN_POINT('',(-12.1,9.384289299237,0.));
#317 = VECTOR('',#318,1.);
#318 = DIRECTION('',(0.,1.,0.));
#319 = ORIENTED_EDGE('',*,*,#296,.T.);
#320 = ORIENTED_EDGE('',*,*,#312,.T.);
#321 = ORIENTED_EDGE('',*,*,#322,.T.);
#322 = EDGE_CURVE('',#313,#323,#325,.T.);
#323 = VERTEX_POINT('',#324);
#324 = CARTESIAN_POINT('',(-12.10000014944,14.300000001036,
    -1.4692076E-08));
#325 = LINE('',#326,#327);
#326 = CARTESIAN_POINT('',(-12.1,9.384289299237,0.));
#327 = VECTOR('',#328,1.);
#328 = DIRECTION('',(0.,1.,0.));
#329 = ORIENTED_EDGE('',*,*,#330,.T.);
#330 = EDGE_CURVE('',#323,#331,#333,.T.);
#331 = VERTEX_POINT('',#332);
#332 = CARTESIAN_POINT('',(-12.09999999632,15.335524455979,
    -1.6699428E-08));
#333 = LINE('',#334,#335);
#334 = CARTESIAN_POINT('',(-12.1,9.384289299237,0.));
#335 = VECTOR('',#336,1.);
#336 = DIRECTION('',(0.,1.,0.));
#337 = ORIENTED_EDGE('',*,*,#338,.T.);
#338 = EDGE_CURVE('',#331,#313,#339,.T.);
#339 = B_SPLINE_CURVE_WITH_KNOTS('',11,(#340,#341,#342,#343,#344,#345,
    #346,#347,#348,#349,#350,#351),.UNSPECIFIED.,.F.,.F.,(12,12),(0.,
    6.303048278758),.PIECEWISE_BEZIER_KNOTS.);
#340 = CARTESIAN_POINT('',(-12.09999999632,15.335524455993,
    -1.669955619E-08));
#341 = CARTESIAN_POINT('',(-12.10000031358,15.090069912784,
    -6.911503959171));
#342 = CARTESIAN_POINT('',(-7.758307478765,14.84461536233,
    -13.82285089324));
#343 = CARTESIAN_POINT('',(0.934081789044,14.599160822384,
    -17.70410115589));
#344 = CARTESIAN_POINT('',(11.55316896596,14.353706279785,
    -15.51308364377));
#345 = CARTESIAN_POINT('',(19.471048182809,14.108251713607,
    -6.397612971771));
#346 = CARTESIAN_POINT('',(19.471049249252,13.862797204645,6.39761363218
    ));
#347 = CARTESIAN_POINT('',(11.553168117871,13.617342621821,
    15.513082535502));
#348 = CARTESIAN_POINT('',(0.934082271596,13.371888100882,17.70410198038
    ));
#349 = CARTESIAN_POINT('',(-7.75830800215,13.126433545877,
    13.822850596344));
#350 = CARTESIAN_POINT('',(-12.10000000826,12.88097900146,6.911503921805
    ));
#351 = CARTESIAN_POINT('',(-12.10000014944,12.635524457059,
    -1.469191902E-08));
#352 = CYLINDRICAL_SURFACE('',#353,12.1);
#353 = AXIS2_PLACEMENT_3D('',#354,#355,#356);
#354 = CARTESIAN_POINT('',(0.,9.384289299237,0.));
#355 = DIRECTION('',(0.,1.,0.));
#356 = DIRECTION('',(-1.,0.,0.));
#357 = ADVANCED_FACE('',(#358),#390,.F.);
#358 = FACE_BOUND('',#359,.F.);
#359 = EDGE_LOOP('',(#360,#379,#384,#385));
#360 = ORIENTED_EDGE('',*,*,#361,.F.);
#361 = EDGE_CURVE('',#362,#364,#366,.T.);
#362 = VERTEX_POINT('',#363);
#363 = CARTESIAN_POINT('',(-13.69999999632,15.617647625113,
    -1.6702391E-08));
#364 = VERTEX_POINT('',#365);
#365 = CARTESIAN_POINT('',(-13.70000014944,12.917647626193,-1.469741E-08
    ));
#366 = B_SPLINE_CURVE_WITH_KNOTS('',11,(#367,#368,#369,#370,#371,#372,
    #373,#374,#375,#376,#377,#378),.UNSPECIFIED.,.F.,.F.,(12,12),(0.,
    6.303048278758),.PIECEWISE_BEZIER_KNOTS.);
#367 = CARTESIAN_POINT('',(-13.69999999632,15.617647625128,
    -1.670249537E-08));
#368 = CARTESIAN_POINT('',(-13.70000031357,15.372193081916,
    -7.825421821957));
#369 = CARTESIAN_POINT('',(-8.784199458688,15.126738531171,
    -15.65066590801));
#370 = CARTESIAN_POINT('',(1.057596886314,14.881283992087,
    -20.04513919917));
#371 = CARTESIAN_POINT('',(13.080860521237,14.635829448286,
    -17.56440074799));
#372 = CARTESIAN_POINT('',(22.045732361995,14.390374882693,
    -7.243577872891));
#373 = CARTESIAN_POINT('',(22.045733428348,14.144920374625,
    7.243578533338));
#374 = CARTESIAN_POINT('',(13.08085967319,13.89946578971,17.564399639679
    ));
#375 = CARTESIAN_POINT('',(1.057597368835,13.654011270858,
    20.045140023718));
#376 = CARTESIAN_POINT('',(-8.784199982079,13.408556714651,
    15.650665611078));
#377 = CARTESIAN_POINT('',(-13.70000000826,13.163102170595,7.82542178459
    ));
#378 = CARTESIAN_POINT('',(-13.70000014944,12.917647626193,
    -1.469741017E-08));
#379 = ORIENTED_EDGE('',*,*,#380,.T.);
#380 = EDGE_CURVE('',#362,#331,#381,.T.);
#381 = B_SPLINE_CURVE_WITH_KNOTS('',1,(#382,#383),.UNSPECIFIED.,.F.,.F.,
  (2,2),(0.,1.624682579017),.PIECEWISE_BEZIER_KNOTS.);
#382 = CARTESIAN_POINT('',(-13.69999999632,15.617647625098,
    -1.670214974E-08));
#383 = CARTESIAN_POINT('',(-12.09999999632,15.335524455964,
    -1.669920625E-08));
#384 = ORIENTED_EDGE('',*,*,#338,.T.);
#385 = ORIENTED_EDGE('',*,*,#386,.F.);
#386 = EDGE_CURVE('',#364,#313,#387,.T.);
#387 = B_SPLINE_CURVE_WITH_KNOTS('',1,(#388,#389),.UNSPECIFIED.,.F.,.F.,
  (2,2),(0.,1.624682579017),.PIECEWISE_BEZIER_KNOTS.);
#388 = CARTESIAN_POINT('',(-13.70000014944,12.917647626193,
    -1.469741017E-08));
#389 = CARTESIAN_POINT('',(-12.10000014944,12.635524457059,
    -1.469191902E-08));
#390 = B_SPLINE_SURFACE_WITH_KNOTS('',1,11,(
    (#391,#392,#393,#394,#395,#396,#397,#398,#399,#400,#401,#402)
    ,(#403,#404,#405,#406,#407,#408,#409,#410,#411,#412,#413,#414
  )),.UNSPECIFIED.,.F.,.F.,.F.,(2,2),(12,12),(0.,1.624682579017),(0.,
    6.303048278758),.PIECEWISE_BEZIER_KNOTS.);
#391 = CARTESIAN_POINT('',(-13.69999999632,15.617647625128,
    -1.670249537E-08));
#392 = CARTESIAN_POINT('',(-13.70000031357,15.372193081916,
    -7.825421821957));
#393 = CARTESIAN_POINT('',(-8.784199458688,15.126738531171,
    -15.65066590801));
#394 = CARTESIAN_POINT('',(1.057596886314,14.881283992087,
    -20.04513919917));
#395 = CARTESIAN_POINT('',(13.080860521237,14.635829448286,
    -17.56440074799));
#396 = CARTESIAN_POINT('',(22.045732361995,14.390374882693,
    -7.243577872891));
#397 = CARTESIAN_POINT('',(22.045733428348,14.144920374625,
    7.243578533338));
#398 = CARTESIAN_POINT('',(13.08085967319,13.89946578971,17.564399639679
    ));
#399 = CARTESIAN_POINT('',(1.057597368835,13.654011270858,
    20.045140023718));
#400 = CARTESIAN_POINT('',(-8.784199982079,13.408556714651,
    15.650665611078));
#401 = CARTESIAN_POINT('',(-13.70000000826,13.163102170595,7.82542178459
    ));
#402 = CARTESIAN_POINT('',(-13.70000014944,12.917647626193,
    -1.469741017E-08));
#403 = CARTESIAN_POINT('',(-12.09999999632,15.335524455993,
    -1.669955619E-08));
#404 = CARTESIAN_POINT('',(-12.10000031358,15.090069912784,
    -6.911503959171));
#405 = CARTESIAN_POINT('',(-7.758307478765,14.84461536233,
    -13.82285089324));
#406 = CARTESIAN_POINT('',(0.934081789044,14.599160822384,
    -17.70410115589));
#407 = CARTESIAN_POINT('',(11.55316896596,14.353706279785,
    -15.51308364377));
#408 = CARTESIAN_POINT('',(19.471048182809,14.108251713607,
    -6.397612971771));
#409 = CARTESIAN_POINT('',(19.471049249252,13.862797204645,6.39761363218
    ));
#410 = CARTESIAN_POINT('',(11.553168117871,13.617342621821,
    15.513082535502));
#411 = CARTESIAN_POINT('',(0.934082271596,13.371888100882,17.70410198038
    ));
#412 = CARTESIAN_POINT('',(-7.75830800215,13.126433545877,
    13.822850596344));
#413 = CARTESIAN_POINT('',(-12.10000000826,12.88097900146,6.911503921805
    ));
#414 = CARTESIAN_POINT('',(-12.10000014944,12.635524457059,
    -1.469191902E-08));
#415 = ADVANCED_FACE('',(#416),#459,.T.);
#416 = FACE_BOUND('',#417,.T.);
#417 = EDGE_LOOP('',(#418,#419,#436,#444));
#418 = ORIENTED_EDGE('',*,*,#330,.F.);
#419 = ORIENTED_EDGE('',*,*,#420,.F.);
#420 = EDGE_CURVE('',#421,#323,#423,.T.);
#421 = VERTEX_POINT('',#422);
#422 = CARTESIAN_POINT('',(-12.09999999632,16.999999999956,
    -1.6699591E-08));
#423 = B_SPLINE_CURVE_WITH_KNOTS('',11,(#424,#425,#426,#427,#428,#429,
    #430,#431,#432,#433,#434,#435),.UNSPECIFIED.,.F.,.F.,(12,12),(0.,
    6.303048278758),.PIECEWISE_BEZIER_KNOTS.);
#424 = CARTESIAN_POINT('',(-12.09999999632,16.999999999971,
    -1.66997269E-08));
#425 = CARTESIAN_POINT('',(-12.10000031358,16.754545456762,
    -6.911503959172));
#426 = CARTESIAN_POINT('',(-7.758307478757,16.509090905999,
    -13.82285089324));
#427 = CARTESIAN_POINT('',(0.934081789024,16.263636366971,
    -17.70410115588));
#428 = CARTESIAN_POINT('',(11.553168966,16.018181823057,-15.51308364379)
  );
#429 = CARTESIAN_POINT('',(19.471048182757,15.772727257627,
    -6.397612971743));
#430 = CARTESIAN_POINT('',(19.471049249302,15.527272749385,
    6.397613632155));
#431 = CARTESIAN_POINT('',(11.553168117843,15.281818164608,
    15.513082535517));
#432 = CARTESIAN_POINT('',(0.934082271605,15.036363645676,
    17.704101980379));
#433 = CARTESIAN_POINT('',(-7.758308002153,14.790909089502,
    13.822850596343));
#434 = CARTESIAN_POINT('',(-12.10000000826,14.545454545437,
    6.911503921806));
#435 = CARTESIAN_POINT('',(-12.10000014944,14.300000001036,
    -1.469207553E-08));
#436 = ORIENTED_EDGE('',*,*,#437,.T.);
#437 = EDGE_CURVE('',#421,#438,#440,.T.);
#438 = VERTEX_POINT('',#439);
#439 = CARTESIAN_POINT('',(-12.1,18.035524456034,1.3E-14));
#440 = LINE('',#441,#442);
#441 = CARTESIAN_POINT('',(-12.1,9.384289299237,0.));
#442 = VECTOR('',#443,1.);
#443 = DIRECTION('',(0.,1.,0.));
#444 = ORIENTED_EDGE('',*,*,#445,.T.);
#445 = EDGE_CURVE('',#438,#331,#446,.T.);
#446 = B_SPLINE_CURVE_WITH_KNOTS('',11,(#447,#448,#449,#450,#451,#452,
    #453,#454,#455,#456,#457,#458),.UNSPECIFIED.,.F.,.F.,(12,12),(0.,
    6.303048278758),.PIECEWISE_BEZIER_KNOTS.);
#447 = CARTESIAN_POINT('',(-12.1,18.035524456034,1.309E-14));
#448 = CARTESIAN_POINT('',(-12.1000003354,17.790069912882,
    -6.911503938769));
#449 = CARTESIAN_POINT('',(-7.758307482367,17.544615360906,
    -13.8228509027));
#450 = CARTESIAN_POINT('',(0.934081842562,17.299160829175,
    -17.70410105577));
#451 = CARTESIAN_POINT('',(11.553168544383,17.053706262824,
    -15.51308417433));
#452 = CARTESIAN_POINT('',(19.471049015088,16.808251739646,
    -6.397611729428));
#453 = CARTESIAN_POINT('',(19.471048234664,16.562797179093,
    6.397611684972));
#454 = CARTESIAN_POINT('',(11.553169079501,16.317342636987,
    15.513084316195));
#455 = CARTESIAN_POINT('',(0.934081525028,16.071888097542,
    17.704101000176));
#456 = CARTESIAN_POINT('',(-7.758307380696,15.826433543361,
    13.822850894896));
#457 = CARTESIAN_POINT('',(-12.10000037552,15.580979003957,
    6.911503924016));
#458 = CARTESIAN_POINT('',(-12.09999999632,15.335524455964,
    -1.669920625E-08));
#459 = CYLINDRICAL_SURFACE('',#460,12.1);
#460 = AXIS2_PLACEMENT_3D('',#461,#462,#463);
#461 = CARTESIAN_POINT('',(0.,9.384289299237,0.));
#462 = DIRECTION('',(0.,1.,0.));
#463 = DIRECTION('',(-1.,0.,0.));
#464 = ADVANCED_FACE('',(#465),#481,.F.);
#465 = FACE_BOUND('',#466,.F.);
#466 = EDGE_LOOP('',(#467,#474,#479,#480));
#467 = ORIENTED_EDGE('',*,*,#468,.T.);
#468 = EDGE_CURVE('',#323,#469,#471,.T.);
#469 = VERTEX_POINT('',#470);
#470 = CARTESIAN_POINT('',(-13.70000014944,13.717647626181,
    -1.4697488E-08));
#471 = B_SPLINE_CURVE_WITH_KNOTS('',1,(#472,#473),.UNSPECIFIED.,.F.,.F.,
  (2,2),(0.,1.702684435961),.PIECEWISE_BEZIER_KNOTS.);
#472 = CARTESIAN_POINT('',(-12.10000014944,14.300000001036,
    -1.469207553E-08));
#473 = CARTESIAN_POINT('',(-13.70000014944,13.717647626181,
    -1.469748758E-08));
#474 = ORIENTED_EDGE('',*,*,#475,.T.);
#475 = EDGE_CURVE('',#469,#364,#476,.T.);
#476 = B_SPLINE_CURVE_WITH_KNOTS('',1,(#477,#478),.UNSPECIFIED.,.F.,.F.,
  (2,2),(0.,0.8),.PIECEWISE_BEZIER_KNOTS.);
#477 = CARTESIAN_POINT('',(-13.70000014944,13.717647626181,
    -1.469748758E-08));
#478 = CARTESIAN_POINT('',(-13.70000014944,12.917647626193,
    -1.469741017E-08));
#479 = ORIENTED_EDGE('',*,*,#386,.T.);
#480 = ORIENTED_EDGE('',*,*,#322,.T.);
#481 = PLANE('',#482);
#482 = AXIS2_PLACEMENT_3D('',#483,#484,#485);
#483 = CARTESIAN_POINT('',(-12.78059420424,13.412205391848,
    -1.469413105E-08));
#484 = DIRECTION('',(-3.41624E-12,1.01E-13,1.));
#485 = DIRECTION('',(1.,7.9196E-13,3.41624E-12));
#486 = ADVANCED_FACE('',(#487),#513,.F.);
#487 = FACE_BOUND('',#488,.F.);
#488 = EDGE_LOOP('',(#489,#506,#511,#512));
#489 = ORIENTED_EDGE('',*,*,#490,.F.);
#490 = EDGE_CURVE('',#491,#469,#493,.T.);
#491 = VERTEX_POINT('',#492);
#492 = CARTESIAN_POINT('',(-13.69999999632,16.417647625101,
    -1.6702469E-08));
#493 = B_SPLINE_CURVE_WITH_KNOTS('',11,(#494,#495,#496,#497,#498,#499,
    #500,#501,#502,#503,#504,#505),.UNSPECIFIED.,.F.,.F.,(12,12),(0.,
    6.303048278758),.PIECEWISE_BEZIER_KNOTS.);
#494 = CARTESIAN_POINT('',(-13.69999999632,16.417647625116,
    -1.670260121E-08));
#495 = CARTESIAN_POINT('',(-13.70000031358,16.172193081904,
    -7.825421821958));
#496 = CARTESIAN_POINT('',(-8.784199458684,15.926738531158,
    -15.65066590801));
#497 = CARTESIAN_POINT('',(1.057596886303,15.681283992078,
    -20.04513919918));
#498 = CARTESIAN_POINT('',(13.080860521259,15.435829448271,
    -17.56440074798));
#499 = CARTESIAN_POINT('',(22.045732361971,15.190374882684,
    -7.243577872899));
#500 = CARTESIAN_POINT('',(22.045733428362,14.94492037461,7.243578533343
    ));
#501 = CARTESIAN_POINT('',(13.08085967319,14.6994657897,17.56439963968)
  );
#502 = CARTESIAN_POINT('',(1.057597368829,14.454011270846,
    20.045140023717));
#503 = CARTESIAN_POINT('',(-8.784199982076,14.208556714639,
    15.650665611079));
#504 = CARTESIAN_POINT('',(-13.70000000826,13.963102170584,7.82542178459
    ));
#505 = CARTESIAN_POINT('',(-13.70000014944,13.717647626181,
    -1.469748758E-08));
#506 = ORIENTED_EDGE('',*,*,#507,.T.);
#507 = EDGE_CURVE('',#491,#362,#508,.T.);
#508 = B_SPLINE_CURVE_WITH_KNOTS('',1,(#509,#510),.UNSPECIFIED.,.F.,.F.,
  (2,2),(0.,0.8),.PIECEWISE_BEZIER_KNOTS.);
#509 = CARTESIAN_POINT('',(-13.69999999632,16.417647625087,
    -1.670224228E-08));
#510 = CARTESIAN_POINT('',(-13.69999999632,15.617647625098,
    -1.670214974E-08));
#511 = ORIENTED_EDGE('',*,*,#361,.T.);
#512 = ORIENTED_EDGE('',*,*,#475,.F.);
#513 = B_SPLINE_SURFACE_WITH_KNOTS('',1,11,(
    (#514,#515,#516,#517,#518,#519,#520,#521,#522,#523,#524,#525)
    ,(#526,#527,#528,#529,#530,#531,#532,#533,#534,#535,#536,#537
  )),.UNSPECIFIED.,.F.,.F.,.F.,(2,2),(12,12),(0.,0.8),(0.,6.303048278758
    ),.PIECEWISE_BEZIER_KNOTS.);
#514 = CARTESIAN_POINT('',(-13.69999999632,16.417647625116,
    -1.670260121E-08));
#515 = CARTESIAN_POINT('',(-13.70000031358,16.172193081904,
    -7.825421821958));
#516 = CARTESIAN_POINT('',(-8.784199458684,15.926738531158,
    -15.65066590801));
#517 = CARTESIAN_POINT('',(1.057596886303,15.681283992078,
    -20.04513919918));
#518 = CARTESIAN_POINT('',(13.080860521259,15.435829448271,
    -17.56440074798));
#519 = CARTESIAN_POINT('',(22.045732361971,15.190374882684,
    -7.243577872899));
#520 = CARTESIAN_POINT('',(22.045733428362,14.94492037461,7.243578533343
    ));
#521 = CARTESIAN_POINT('',(13.08085967319,14.6994657897,17.56439963968)
  );
#522 = CARTESIAN_POINT('',(1.057597368829,14.454011270846,
    20.045140023717));
#523 = CARTESIAN_POINT('',(-8.784199982076,14.208556714639,
    15.650665611079));
#524 = CARTESIAN_POINT('',(-13.70000000826,13.963102170584,7.82542178459
    ));
#525 = CARTESIAN_POINT('',(-13.70000014944,13.717647626181,
    -1.469748758E-08));
#526 = CARTESIAN_POINT('',(-13.69999999632,15.617647625128,
    -1.670249537E-08));
#527 = CARTESIAN_POINT('',(-13.70000031357,15.372193081916,
    -7.825421821957));
#528 = CARTESIAN_POINT('',(-8.784199458688,15.126738531171,
    -15.65066590801));
#529 = CARTESIAN_POINT('',(1.057596886314,14.881283992087,
    -20.04513919917));
#530 = CARTESIAN_POINT('',(13.080860521237,14.635829448286,
    -17.56440074799));
#531 = CARTESIAN_POINT('',(22.045732361995,14.390374882693,
    -7.243577872891));
#532 = CARTESIAN_POINT('',(22.045733428348,14.144920374625,
    7.243578533338));
#533 = CARTESIAN_POINT('',(13.08085967319,13.89946578971,17.564399639679
    ));
#534 = CARTESIAN_POINT('',(1.057597368835,13.654011270858,
    20.045140023718));
#535 = CARTESIAN_POINT('',(-8.784199982079,13.408556714651,
    15.650665611078));
#536 = CARTESIAN_POINT('',(-13.70000000826,13.163102170595,7.82542178459
    ));
#537 = CARTESIAN_POINT('',(-13.70000014944,12.917647626193,
    -1.469741017E-08));
#538 = ADVANCED_FACE('',(#539),#565,.F.);
#539 = FACE_BOUND('',#540,.F.);
#540 = EDGE_LOOP('',(#541,#558,#563,#564));
#541 = ORIENTED_EDGE('',*,*,#542,.F.);
#542 = EDGE_CURVE('',#543,#362,#545,.T.);
#543 = VERTEX_POINT('',#544);
#544 = CARTESIAN_POINT('',(-13.7,18.317647625168,-2.3E-14));
#545 = B_SPLINE_CURVE_WITH_KNOTS('',11,(#546,#547,#548,#549,#550,#551,
    #552,#553,#554,#555,#556,#557),.UNSPECIFIED.,.F.,.F.,(12,12),(0.,
    6.303048278758),.PIECEWISE_BEZIER_KNOTS.);
#546 = CARTESIAN_POINT('',(-13.7,18.317647625168,-2.316E-14));
#547 = CARTESIAN_POINT('',(-13.7000003354,18.072193082013,-7.82542180156
    ));
#548 = CARTESIAN_POINT('',(-8.78419946229,17.826738530051,
    -15.65066591743));
#549 = CARTESIAN_POINT('',(1.057596939817,17.581283998287,
    -20.04513909913));
#550 = CARTESIAN_POINT('',(13.080860099685,17.335829431979,
    -17.56440127844));
#551 = CARTESIAN_POINT('',(22.045733194232,17.09037490878,
    -7.243576630682));
#552 = CARTESIAN_POINT('',(22.045732413802,16.844920348199,
    7.243576586226));
#553 = CARTESIAN_POINT('',(13.080860634797,16.599465806163,
    17.564401420323));
#554 = CARTESIAN_POINT('',(1.057596622282,16.354011266643,
    20.045139043522));
#555 = CARTESIAN_POINT('',(-8.784199360625,16.10855671251,
    15.650665909638));
#556 = CARTESIAN_POINT('',(-13.70000037552,15.863102173087,
    7.825421786801));
#557 = CARTESIAN_POINT('',(-13.69999999632,15.617647625098,
    -1.670214974E-08));
#558 = ORIENTED_EDGE('',*,*,#559,.T.);
#559 = EDGE_CURVE('',#543,#438,#560,.T.);
#560 = B_SPLINE_CURVE_WITH_KNOTS('',1,(#561,#562),.UNSPECIFIED.,.F.,.F.,
  (2,2),(0.,1.624682579017),.PIECEWISE_BEZIER_KNOTS.);
#561 = CARTESIAN_POINT('',(-13.7,18.317647625168,-2.316E-14));
#562 = CARTESIAN_POINT('',(-12.1,18.035524456034,1.309E-14));
#563 = ORIENTED_EDGE('',*,*,#445,.T.);
#564 = ORIENTED_EDGE('',*,*,#380,.F.);
#565 = B_SPLINE_SURFACE_WITH_KNOTS('',1,11,(
    (#566,#567,#568,#569,#570,#571,#572,#573,#574,#575,#576,#577)
    ,(#578,#579,#580,#581,#582,#583,#584,#585,#586,#587,#588,#589
  )),.UNSPECIFIED.,.F.,.F.,.F.,(2,2),(12,12),(0.,1.624682579017),(0.,
    6.303048278758),.PIECEWISE_BEZIER_KNOTS.);
#566 = CARTESIAN_POINT('',(-13.7,18.317647625168,-2.316E-14));
#567 = CARTESIAN_POINT('',(-13.7000003354,18.072193082013,-7.82542180156
    ));
#568 = CARTESIAN_POINT('',(-8.78419946229,17.826738530051,
    -15.65066591743));
#569 = CARTESIAN_POINT('',(1.057596939817,17.581283998287,
    -20.04513909913));
#570 = CARTESIAN_POINT('',(13.080860099685,17.335829431979,
    -17.56440127844));
#571 = CARTESIAN_POINT('',(22.045733194232,17.09037490878,
    -7.243576630682));
#572 = CARTESIAN_POINT('',(22.045732413802,16.844920348199,
    7.243576586226));
#573 = CARTESIAN_POINT('',(13.080860634797,16.599465806163,
    17.564401420323));
#574 = CARTESIAN_POINT('',(1.057596622282,16.354011266643,
    20.045139043522));
#575 = CARTESIAN_POINT('',(-8.784199360625,16.10855671251,
    15.650665909638));
#576 = CARTESIAN_POINT('',(-13.70000037552,15.863102173087,
    7.825421786801));
#577 = CARTESIAN_POINT('',(-13.69999999632,15.617647625098,
    -1.670214974E-08));
#578 = CARTESIAN_POINT('',(-12.1,18.035524456034,1.309E-14));
#579 = CARTESIAN_POINT('',(-12.1000003354,17.790069912882,
    -6.911503938769));
#580 = CARTESIAN_POINT('',(-7.758307482367,17.544615360906,
    -13.8228509027));
#581 = CARTESIAN_POINT('',(0.934081842562,17.299160829175,
    -17.70410105577));
#582 = CARTESIAN_POINT('',(11.553168544383,17.053706262824,
    -15.51308417433));
#583 = CARTESIAN_POINT('',(19.471049015088,16.808251739646,
    -6.397611729428));
#584 = CARTESIAN_POINT('',(19.471048234664,16.562797179093,
    6.397611684972));
#585 = CARTESIAN_POINT('',(11.553169079501,16.317342636987,
    15.513084316195));
#586 = CARTESIAN_POINT('',(0.934081525028,16.071888097542,
    17.704101000176));
#587 = CARTESIAN_POINT('',(-7.758307380696,15.826433543361,
    13.822850894896));
#588 = CARTESIAN_POINT('',(-12.10000037552,15.580979003957,
    6.911503924016));
#589 = CARTESIAN_POINT('',(-12.09999999632,15.335524455964,
    -1.669920625E-08));
#590 = ADVANCED_FACE('',(#591),#624,.T.);
#591 = FACE_BOUND('',#592,.T.);
#592 = EDGE_LOOP('',(#593,#594,#611,#618));
#593 = ORIENTED_EDGE('',*,*,#437,.F.);
#594 = ORIENTED_EDGE('',*,*,#595,.F.);
#595 = EDGE_CURVE('',#596,#421,#598,.T.);
#596 = VERTEX_POINT('',#597);
#597 = CARTESIAN_POINT('',(-12.1,19.699999999988,3.E-15));
#598 = B_SPLINE_CURVE_WITH_KNOTS('',11,(#599,#600,#601,#602,#603,#604,
    #605,#606,#607,#608,#609,#610),.UNSPECIFIED.,.F.,.F.,(12,12),(0.,
    6.303048278758),.PIECEWISE_BEZIER_KNOTS.);
#599 = CARTESIAN_POINT('',(-12.1,19.699999999983,4.98E-15));
#600 = CARTESIAN_POINT('',(-12.1000003354,19.45454545683,-6.911503938769
    ));
#601 = CARTESIAN_POINT('',(-7.758307482359,19.209090905267,
    -13.8228509027));
#602 = CARTESIAN_POINT('',(0.934081842543,18.963636371964,
    -17.70410105578));
#603 = CARTESIAN_POINT('',(11.553168544412,18.71818180895,
    -15.51308417431));
#604 = CARTESIAN_POINT('',(19.471049015067,18.472727281043,
    -6.397611729459));
#605 = CARTESIAN_POINT('',(19.47104823467,18.227272725196,6.397611685005
    ));
#606 = CARTESIAN_POINT('',(11.553169079511,17.981818179783,
    15.513084316174));
#607 = CARTESIAN_POINT('',(0.934081525015,17.736363641931,
    17.704101000186));
#608 = CARTESIAN_POINT('',(-7.758307380689,17.490909087267,
    13.822850894895));
#609 = CARTESIAN_POINT('',(-12.10000037552,17.245454547934,
    6.911503924017));
#610 = CARTESIAN_POINT('',(-12.09999999632,16.999999999942,
    -1.669936358E-08));
#611 = ORIENTED_EDGE('',*,*,#612,.F.);
#612 = EDGE_CURVE('',#596,#596,#613,.T.);
#613 = CIRCLE('',#614,12.1);
#614 = AXIS2_PLACEMENT_3D('',#615,#616,#617);
#615 = CARTESIAN_POINT('',(0.,19.7,0.));
#616 = DIRECTION('',(0.,1.,-0.));
#617 = DIRECTION('',(-1.,0.,0.));
#618 = ORIENTED_EDGE('',*,*,#619,.F.);
#619 = EDGE_CURVE('',#438,#596,#620,.T.);
#620 = LINE('',#621,#622);
#621 = CARTESIAN_POINT('',(-12.1,9.384289299237,0.));
#622 = VECTOR('',#623,1.);
#623 = DIRECTION('',(0.,1.,0.));
#624 = CYLINDRICAL_SURFACE('',#625,12.1);
#625 = AXIS2_PLACEMENT_3D('',#626,#627,#628);
#626 = CARTESIAN_POINT('',(0.,9.384289299237,0.));
#627 = DIRECTION('',(0.,1.,0.));
#628 = DIRECTION('',(-1.,0.,0.));
#629 = ADVANCED_FACE('',(#630),#640,.F.);
#630 = FACE_BOUND('',#631,.F.);
#631 = EDGE_LOOP('',(#632,#633,#638,#639));
#632 = ORIENTED_EDGE('',*,*,#420,.F.);
#633 = ORIENTED_EDGE('',*,*,#634,.T.);
#634 = EDGE_CURVE('',#421,#491,#635,.T.);
#635 = B_SPLINE_CURVE_WITH_KNOTS('',1,(#636,#637),.UNSPECIFIED.,.F.,.F.,
  (2,2),(0.,1.702684435961),.PIECEWISE_BEZIER_KNOTS.);
#636 = CARTESIAN_POINT('',(-12.09999999632,16.999999999942,
    -1.669936358E-08));
#637 = CARTESIAN_POINT('',(-13.69999999632,16.417647625087,
    -1.670224228E-08));
#638 = ORIENTED_EDGE('',*,*,#490,.T.);
#639 = ORIENTED_EDGE('',*,*,#468,.F.);
#640 = B_SPLINE_SURFACE_WITH_KNOTS('',1,11,(
    (#641,#642,#643,#644,#645,#646,#647,#648,#649,#650,#651,#652)
    ,(#653,#654,#655,#656,#657,#658,#659,#660,#661,#662,#663,#664
  )),.UNSPECIFIED.,.F.,.F.,.F.,(2,2),(12,12),(0.,1.702684435961),(0.,
    6.303048278758),.PIECEWISE_BEZIER_KNOTS.);
#641 = CARTESIAN_POINT('',(-12.09999999632,16.999999999971,
    -1.66997269E-08));
#642 = CARTESIAN_POINT('',(-12.10000031358,16.754545456762,
    -6.911503959172));
#643 = CARTESIAN_POINT('',(-7.758307478757,16.509090905999,
    -13.82285089324));
#644 = CARTESIAN_POINT('',(0.934081789024,16.263636366971,
    -17.70410115588));
#645 = CARTESIAN_POINT('',(11.553168966,16.018181823057,-15.51308364379)
  );
#646 = CARTESIAN_POINT('',(19.471048182757,15.772727257627,
    -6.397612971743));
#647 = CARTESIAN_POINT('',(19.471049249302,15.527272749385,
    6.397613632155));
#648 = CARTESIAN_POINT('',(11.553168117843,15.281818164608,
    15.513082535517));
#649 = CARTESIAN_POINT('',(0.934082271605,15.036363645676,
    17.704101980379));
#650 = CARTESIAN_POINT('',(-7.758308002153,14.790909089502,
    13.822850596343));
#651 = CARTESIAN_POINT('',(-12.10000000826,14.545454545437,
    6.911503921806));
#652 = CARTESIAN_POINT('',(-12.10000014944,14.300000001036,
    -1.469207553E-08));
#653 = CARTESIAN_POINT('',(-13.69999999632,16.417647625116,
    -1.670260121E-08));
#654 = CARTESIAN_POINT('',(-13.70000031358,16.172193081904,
    -7.825421821958));
#655 = CARTESIAN_POINT('',(-8.784199458684,15.926738531158,
    -15.65066590801));
#656 = CARTESIAN_POINT('',(1.057596886303,15.681283992078,
    -20.04513919918));
#657 = CARTESIAN_POINT('',(13.080860521259,15.435829448271,
    -17.56440074798));
#658 = CARTESIAN_POINT('',(22.045732361971,15.190374882684,
    -7.243577872899));
#659 = CARTESIAN_POINT('',(22.045733428362,14.94492037461,7.243578533343
    ));
#660 = CARTESIAN_POINT('',(13.08085967319,14.6994657897,17.56439963968)
  );
#661 = CARTESIAN_POINT('',(1.057597368829,14.454011270846,
    20.045140023717));
#662 = CARTESIAN_POINT('',(-8.784199982076,14.208556714639,
    15.650665611079));
#663 = CARTESIAN_POINT('',(-13.70000000826,13.963102170584,7.82542178459
    ));
#664 = CARTESIAN_POINT('',(-13.70000014944,13.717647626181,
    -1.469748758E-08));
#665 = ADVANCED_FACE('',(#666),#692,.F.);
#666 = FACE_BOUND('',#667,.F.);
#667 = EDGE_LOOP('',(#668,#685,#690,#691));
#668 = ORIENTED_EDGE('',*,*,#669,.F.);
#669 = EDGE_CURVE('',#670,#491,#672,.T.);
#670 = VERTEX_POINT('',#671);
#671 = CARTESIAN_POINT('',(-13.7,19.117647625157,-9.E-15));
#672 = B_SPLINE_CURVE_WITH_KNOTS('',11,(#673,#674,#675,#676,#677,#678,
    #679,#680,#681,#682,#683,#684),.UNSPECIFIED.,.F.,.F.,(12,12),(0.,
    6.303048278758),.PIECEWISE_BEZIER_KNOTS.);
#673 = CARTESIAN_POINT('',(-13.7,19.117647625157,-9.12E-15));
#674 = CARTESIAN_POINT('',(-13.7000003354,18.872193082002,-7.82542180156
    ));
#675 = CARTESIAN_POINT('',(-8.784199462287,18.626738530038,
    -15.65066591743));
#676 = CARTESIAN_POINT('',(1.057596939808,18.38128399828,-20.04513909912
    ));
#677 = CARTESIAN_POINT('',(13.0808600997,18.13582943196,-17.56440127846)
  );
#678 = CARTESIAN_POINT('',(22.045733194218,17.890374908778,
    -7.24357663065));
#679 = CARTESIAN_POINT('',(22.045732413806,17.644920348177,
    7.243576586192));
#680 = CARTESIAN_POINT('',(13.080860634805,17.399465806159,
    17.564401420346));
#681 = CARTESIAN_POINT('',(1.057596622271,17.154011266627,
    20.045139043512));
#682 = CARTESIAN_POINT('',(-8.784199360619,16.9085567125,15.650665909641
    ));
#683 = CARTESIAN_POINT('',(-13.70000037552,16.663102173075,
    7.825421786801));
#684 = CARTESIAN_POINT('',(-13.69999999632,16.417647625087,
    -1.670224228E-08));
#685 = ORIENTED_EDGE('',*,*,#686,.T.);
#686 = EDGE_CURVE('',#670,#543,#687,.T.);
#687 = B_SPLINE_CURVE_WITH_KNOTS('',1,(#688,#689),.UNSPECIFIED.,.F.,.F.,
  (2,2),(0.,0.8),.PIECEWISE_BEZIER_KNOTS.);
#688 = CARTESIAN_POINT('',(-13.7,19.117647625157,-9.12E-15));
#689 = CARTESIAN_POINT('',(-13.7,18.317647625168,-2.316E-14));
#690 = ORIENTED_EDGE('',*,*,#542,.T.);
#691 = ORIENTED_EDGE('',*,*,#507,.F.);
#692 = B_SPLINE_SURFACE_WITH_KNOTS('',1,11,(
    (#693,#694,#695,#696,#697,#698,#699,#700,#701,#702,#703,#704)
    ,(#705,#706,#707,#708,#709,#710,#711,#712,#713,#714,#715,#716
  )),.UNSPECIFIED.,.F.,.F.,.F.,(2,2),(12,12),(0.,0.8),(0.,6.303048278758
    ),.PIECEWISE_BEZIER_KNOTS.);
#693 = CARTESIAN_POINT('',(-13.7,19.117647625157,-9.12E-15));
#694 = CARTESIAN_POINT('',(-13.7000003354,18.872193082002,-7.82542180156
    ));
#695 = CARTESIAN_POINT('',(-8.784199462287,18.626738530038,
    -15.65066591743));
#696 = CARTESIAN_POINT('',(1.057596939808,18.38128399828,-20.04513909912
    ));
#697 = CARTESIAN_POINT('',(13.0808600997,18.13582943196,-17.56440127846)
  );
#698 = CARTESIAN_POINT('',(22.045733194218,17.890374908778,
    -7.24357663065));
#699 = CARTESIAN_POINT('',(22.045732413806,17.644920348177,
    7.243576586192));
#700 = CARTESIAN_POINT('',(13.080860634805,17.399465806159,
    17.564401420346));
#701 = CARTESIAN_POINT('',(1.057596622271,17.154011266627,
    20.045139043512));
#702 = CARTESIAN_POINT('',(-8.784199360619,16.9085567125,15.650665909641
    ));
#703 = CARTESIAN_POINT('',(-13.70000037552,16.663102173075,
    7.825421786801));
#704 = CARTESIAN_POINT('',(-13.69999999632,16.417647625087,
    -1.670224228E-08));
#705 = CARTESIAN_POINT('',(-13.7,18.317647625168,-2.316E-14));
#706 = CARTESIAN_POINT('',(-13.7000003354,18.072193082013,-7.82542180156
    ));
#707 = CARTESIAN_POINT('',(-8.78419946229,17.826738530051,
    -15.65066591743));
#708 = CARTESIAN_POINT('',(1.057596939817,17.581283998287,
    -20.04513909913));
#709 = CARTESIAN_POINT('',(13.080860099685,17.335829431979,
    -17.56440127844));
#710 = CARTESIAN_POINT('',(22.045733194232,17.09037490878,
    -7.243576630682));
#711 = CARTESIAN_POINT('',(22.045732413802,16.844920348199,
    7.243576586226));
#712 = CARTESIAN_POINT('',(13.080860634797,16.599465806163,
    17.564401420323));
#713 = CARTESIAN_POINT('',(1.057596622282,16.354011266643,
    20.045139043522));
#714 = CARTESIAN_POINT('',(-8.784199360625,16.10855671251,
    15.650665909638));
#715 = CARTESIAN_POINT('',(-13.70000037552,15.863102173087,
    7.825421786801));
#716 = CARTESIAN_POINT('',(-13.69999999632,15.617647625098,
    -1.670214974E-08));
#717 = ADVANCED_FACE('',(#718),#728,.T.);
#718 = FACE_BOUND('',#719,.T.);
#719 = EDGE_LOOP('',(#720,#725,#726,#727));
#720 = ORIENTED_EDGE('',*,*,#721,.T.);
#721 = EDGE_CURVE('',#596,#670,#722,.T.);
#722 = B_SPLINE_CURVE_WITH_KNOTS('',1,(#723,#724),.UNSPECIFIED.,.F.,.F.,
  (2,2),(0.,1.702684435961),.PIECEWISE_BEZIER_KNOTS.);
#723 = CARTESIAN_POINT('',(-12.1,19.699999999983,4.98E-15));
#724 = CARTESIAN_POINT('',(-13.7,19.117647625157,-9.12E-15));
#725 = ORIENTED_EDGE('',*,*,#686,.T.);
#726 = ORIENTED_EDGE('',*,*,#559,.T.);
#727 = ORIENTED_EDGE('',*,*,#619,.T.);
#728 = PLANE('',#729);
#729 = AXIS2_PLACEMENT_3D('',#730,#731,#732);
#730 = CARTESIAN_POINT('',(-12.7805940548,18.812205390775,-1.16E-15));
#731 = DIRECTION('',(0.,0.,1.));
#732 = DIRECTION('',(1.,0.,0.));
#733 = ADVANCED_FACE('',(#734,#737),#748,.F.);
#734 = FACE_BOUND('',#735,.T.);
#735 = EDGE_LOOP('',(#736));
#736 = ORIENTED_EDGE('',*,*,#612,.T.);
#737 = FACE_BOUND('',#738,.T.);
#738 = EDGE_LOOP('',(#739));
#739 = ORIENTED_EDGE('',*,*,#740,.F.);
#740 = EDGE_CURVE('',#741,#741,#743,.T.);
#741 = VERTEX_POINT('',#742);
#742 = CARTESIAN_POINT('',(-12.535,19.7,0.));
#743 = CIRCLE('',#744,12.535);
#744 = AXIS2_PLACEMENT_3D('',#745,#746,#747);
#745 = CARTESIAN_POINT('',(0.,19.7,0.));
#746 = DIRECTION('',(0.,1.,-0.));
#747 = DIRECTION('',(-1.,0.,0.));
#748 = PLANE('',#749);
#749 = AXIS2_PLACEMENT_3D('',#750,#751,#752);
#750 = CARTESIAN_POINT('',(0.,19.7,0.));
#751 = DIRECTION('',(0.,1.,0.));
#752 = DIRECTION('',(-1.,-0.,-0.));
#753 = ADVANCED_FACE('',(#754),#760,.F.);
#754 = FACE_BOUND('',#755,.F.);
#755 = EDGE_LOOP('',(#756,#757,#758,#759));
#756 = ORIENTED_EDGE('',*,*,#595,.F.);
#757 = ORIENTED_EDGE('',*,*,#721,.T.);
#758 = ORIENTED_EDGE('',*,*,#669,.T.);
#759 = ORIENTED_EDGE('',*,*,#634,.F.);
#760 = B_SPLINE_SURFACE_WITH_KNOTS('',1,11,(
    (#761,#762,#763,#764,#765,#766,#767,#768,#769,#770,#771,#772)
    ,(#773,#774,#775,#776,#777,#778,#779,#780,#781,#782,#783,#784
  )),.UNSPECIFIED.,.F.,.F.,.F.,(2,2),(12,12),(0.,1.702684435961),(0.,
    6.303048278758),.PIECEWISE_BEZIER_KNOTS.);
#761 = CARTESIAN_POINT('',(-12.1,19.699999999983,4.98E-15));
#762 = CARTESIAN_POINT('',(-12.1000003354,19.45454545683,-6.911503938769
    ));
#763 = CARTESIAN_POINT('',(-7.758307482359,19.209090905267,
    -13.8228509027));
#764 = CARTESIAN_POINT('',(0.934081842543,18.963636371964,
    -17.70410105578));
#765 = CARTESIAN_POINT('',(11.553168544412,18.71818180895,
    -15.51308417431));
#766 = CARTESIAN_POINT('',(19.471049015067,18.472727281043,
    -6.397611729459));
#767 = CARTESIAN_POINT('',(19.47104823467,18.227272725196,6.397611685005
    ));
#768 = CARTESIAN_POINT('',(11.553169079511,17.981818179783,
    15.513084316174));
#769 = CARTESIAN_POINT('',(0.934081525015,17.736363641931,
    17.704101000186));
#770 = CARTESIAN_POINT('',(-7.758307380689,17.490909087267,
    13.822850894895));
#771 = CARTESIAN_POINT('',(-12.10000037552,17.245454547934,
    6.911503924017));
#772 = CARTESIAN_POINT('',(-12.09999999632,16.999999999942,
    -1.669936358E-08));
#773 = CARTESIAN_POINT('',(-13.7,19.117647625157,-9.12E-15));
#774 = CARTESIAN_POINT('',(-13.7000003354,18.872193082002,-7.82542180156
    ));
#775 = CARTESIAN_POINT('',(-8.784199462287,18.626738530038,
    -15.65066591743));
#776 = CARTESIAN_POINT('',(1.057596939808,18.38128399828,-20.04513909912
    ));
#777 = CARTESIAN_POINT('',(13.0808600997,18.13582943196,-17.56440127846)
  );
#778 = CARTESIAN_POINT('',(22.045733194218,17.890374908778,
    -7.24357663065));
#779 = CARTESIAN_POINT('',(22.045732413806,17.644920348177,
    7.243576586192));
#780 = CARTESIAN_POINT('',(13.080860634805,17.399465806159,
    17.564401420346));
#781 = CARTESIAN_POINT('',(1.057596622271,17.154011266627,
    20.045139043512));
#782 = CARTESIAN_POINT('',(-8.784199360619,16.9085567125,15.650665909641
    ));
#783 = CARTESIAN_POINT('',(-13.70000037552,16.663102173075,
    7.825421786801));
#784 = CARTESIAN_POINT('',(-13.69999999632,16.417647625087,
    -1.670224228E-08));
#785 = ADVANCED_FACE('',(#786),#805,.T.);
#786 = FACE_BOUND('',#787,.T.);
#787 = EDGE_LOOP('',(#788,#789,#797,#804));
#788 = ORIENTED_EDGE('',*,*,#740,.T.);
#789 = ORIENTED_EDGE('',*,*,#790,.T.);
#790 = EDGE_CURVE('',#741,#791,#793,.T.);
#791 = VERTEX_POINT('',#792);
#792 = CARTESIAN_POINT('',(-12.535,21.4,0.));
#793 = LINE('',#794,#795);
#794 = CARTESIAN_POINT('',(-12.535,19.7,0.));
#795 = VECTOR('',#796,1.);
#796 = DIRECTION('',(0.,1.,0.));
#797 = ORIENTED_EDGE('',*,*,#798,.F.);
#798 = EDGE_CURVE('',#791,#791,#799,.T.);
#799 = CIRCLE('',#800,12.535);
#800 = AXIS2_PLACEMENT_3D('',#801,#802,#803);
#801 = CARTESIAN_POINT('',(0.,21.4,0.));
#802 = DIRECTION('',(0.,1.,-0.));
#803 = DIRECTION('',(-1.,0.,0.));
#804 = ORIENTED_EDGE('',*,*,#790,.F.);
#805 = CYLINDRICAL_SURFACE('',#806,12.535);
#806 = AXIS2_PLACEMENT_3D('',#807,#808,#809);
#807 = CARTESIAN_POINT('',(0.,19.7,0.));
#808 = DIRECTION('',(0.,1.,0.));
#809 = DIRECTION('',(-1.,0.,0.));
#810 = ADVANCED_FACE('',(#811,#814),#825,.T.);
#811 = FACE_BOUND('',#812,.T.);
#812 = EDGE_LOOP('',(#813));
#813 = ORIENTED_EDGE('',*,*,#798,.T.);
#814 = FACE_BOUND('',#815,.T.);
#815 = EDGE_LOOP('',(#816));
#816 = ORIENTED_EDGE('',*,*,#817,.F.);
#817 = EDGE_CURVE('',#818,#818,#820,.T.);
#818 = VERTEX_POINT('',#819);
#819 = CARTESIAN_POINT('',(-10.87,21.4,0.));
#820 = CIRCLE('',#821,10.87);
#821 = AXIS2_PLACEMENT_3D('',#822,#823,#824);
#822 = CARTESIAN_POINT('',(0.,21.4,0.));
#823 = DIRECTION('',(0.,1.,-0.));
#824 = DIRECTION('',(-1.,0.,0.));
#825 = PLANE('',#826);
#826 = AXIS2_PLACEMENT_3D('',#827,#828,#829);
#827 = CARTESIAN_POINT('',(0.,21.4,0.));
#828 = DIRECTION('',(0.,1.,0.));
#829 = DIRECTION('',(-1.,0.,0.));
#830 = ADVANCED_FACE('',(#831),#850,.F.);
#831 = FACE_BOUND('',#832,.T.);
#832 = EDGE_LOOP('',(#833,#841,#842,#843));
#833 = ORIENTED_EDGE('',*,*,#834,.F.);
#834 = EDGE_CURVE('',#818,#835,#837,.T.);
#835 = VERTEX_POINT('',#836);
#836 = CARTESIAN_POINT('',(-10.87,0.,0.));
#837 = LINE('',#838,#839);
#838 = CARTESIAN_POINT('',(-10.87,21.4,0.));
#839 = VECTOR('',#840,1.);
#840 = DIRECTION('',(0.,-1.,0.));
#841 = ORIENTED_EDGE('',*,*,#817,.T.);
#842 = ORIENTED_EDGE('',*,*,#834,.T.);
#843 = ORIENTED_EDGE('',*,*,#844,.F.);
#844 = EDGE_CURVE('',#835,#835,#845,.T.);
#845 = CIRCLE('',#846,10.87);
#846 = AXIS2_PLACEMENT_3D('',#847,#848,#849);
#847 = CARTESIAN_POINT('',(0.,0.,0.));
#848 = DIRECTION('',(0.,1.,-0.));
#849 = DIRECTION('',(-1.,0.,0.));
#850 = CYLINDRICAL_SURFACE('',#851,10.87);
#851 = AXIS2_PLACEMENT_3D('',#852,#853,#854);
#852 = CARTESIAN_POINT('',(0.,21.4,0.));
#853 = DIRECTION('',(-0.,-1.,-0.));
#854 = DIRECTION('',(-1.,0.,0.));
#855 = ADVANCED_FACE('',(#856),#875,.F.);
#856 = FACE_BOUND('',#857,.T.);
#857 = EDGE_LOOP('',(#858,#866,#867,#868));
#858 = ORIENTED_EDGE('',*,*,#859,.F.);
#859 = EDGE_CURVE('',#835,#860,#862,.T.);
#860 = VERTEX_POINT('',#861);
#861 = CARTESIAN_POINT('',(-12.5,-4.,0.));
#862 = LINE('',#863,#864);
#863 = CARTESIAN_POINT('',(-10.87,0.,0.));
#864 = VECTOR('',#865,1.);
#865 = DIRECTION('',(-0.377370426373,-0.926062396007,0.));
#866 = ORIENTED_EDGE('',*,*,#844,.T.);
#867 = ORIENTED_EDGE('',*,*,#859,.T.);
#868 = ORIENTED_EDGE('',*,*,#869,.F.);
#869 = EDGE_CURVE('',#860,#860,#870,.T.);
#870 = CIRCLE('',#871,12.5);
#871 = AXIS2_PLACEMENT_3D('',#872,#873,#874);
#872 = CARTESIAN_POINT('',(0.,-4.,0.));
#873 = DIRECTION('',(0.,1.,-0.));
#874 = DIRECTION('',(-1.,0.,0.));
#875 = CONICAL_SURFACE('',#876,10.87,0.386955126926);
#876 = AXIS2_PLACEMENT_3D('',#877,#878,#879);
#877 = CARTESIAN_POINT('',(0.,0.,0.));
#878 = DIRECTION('',(-0.,-1.,-0.));
#879 = DIRECTION('',(-1.,0.,0.));
#880 = ADVANCED_FACE('',(#881),#901,.T.);
#881 = FACE_BOUND('',#882,.T.);
#882 = EDGE_LOOP('',(#883,#884,#893,#900));
#883 = ORIENTED_EDGE('',*,*,#869,.T.);
#884 = ORIENTED_EDGE('',*,*,#885,.T.);
#885 = EDGE_CURVE('',#860,#886,#888,.T.);
#886 = VERTEX_POINT('',#887);
#887 = CARTESIAN_POINT('',(-43.9,-55.5,0.));
#888 = B_SPLINE_CURVE_WITH_KNOTS('',3,(#889,#890,#891,#892),
  .UNSPECIFIED.,.F.,.F.,(4,4),(0.,1.),.PIECEWISE_BEZIER_KNOTS.);
#889 = CARTESIAN_POINT('',(-12.5,-4.,0.));
#890 = CARTESIAN_POINT('',(-42.547043,-23.999706,0.));
#891 = CARTESIAN_POINT('',(-43.214832,-36.674423,0.));
#892 = CARTESIAN_POINT('',(-43.9,-55.5,0.));
#893 = ORIENTED_EDGE('',*,*,#894,.F.);
#894 = EDGE_CURVE('',#886,#886,#895,.T.);
#895 = CIRCLE('',#896,43.9);
#896 = AXIS2_PLACEMENT_3D('',#897,#898,#899);
#897 = CARTESIAN_POINT('',(0.,-55.5,0.));
#898 = DIRECTION('',(0.,1.,-0.));
#899 = DIRECTION('',(-1.,0.,0.));
#900 = ORIENTED_EDGE('',*,*,#885,.F.);
#901 = SURFACE_OF_REVOLUTION('',#902,#907);
#902 = B_SPLINE_CURVE_WITH_KNOTS('',3,(#903,#904,#905,#906),
  .UNSPECIFIED.,.F.,.F.,(4,4),(0.,1.),.PIECEWISE_BEZIER_KNOTS.);
#903 = CARTESIAN_POINT('',(-12.5,-4.,0.));
#904 = CARTESIAN_POINT('',(-42.547043,-23.999706,0.));
#905 = CARTESIAN_POINT('',(-43.214832,-36.674423,0.));
#906 = CARTESIAN_POINT('',(-43.9,-55.5,0.));
#907 = AXIS1_PLACEMENT('',#908,#909);
#908 = CARTESIAN_POINT('',(0.,0.,0.));
#909 = DIRECTION('',(0.,1.,0.));
#910 = ADVANCED_FACE('',(#911),#930,.F.);
#911 = FACE_BOUND('',#912,.T.);
#912 = EDGE_LOOP('',(#913,#914,#922,#929));
#913 = ORIENTED_EDGE('',*,*,#894,.T.);
#914 = ORIENTED_EDGE('',*,*,#915,.T.);
#915 = EDGE_CURVE('',#886,#916,#918,.T.);
#916 = VERTEX_POINT('',#917);
#917 = CARTESIAN_POINT('',(-43.9,-265.353546,0.));
#918 = LINE('',#919,#920);
#919 = CARTESIAN_POINT('',(-43.9,-55.5,0.));
#920 = VECTOR('',#921,1.);
#921 = DIRECTION('',(0.,-1.,0.));
#922 = ORIENTED_EDGE('',*,*,#923,.F.);
#923 = EDGE_CURVE('',#916,#916,#924,.T.);
#924 = CIRCLE('',#925,43.9);
#925 = AXIS2_PLACEMENT_3D('',#926,#927,#928);
#926 = CARTESIAN_POINT('',(0.,-265.353546,0.));
#927 = DIRECTION('',(0.,1.,-0.));
#928 = DIRECTION('',(-1.,0.,0.));
#929 = ORIENTED_EDGE('',*,*,#915,.F.);
#930 = CYLINDRICAL_SURFACE('',#931,43.9);
#931 = AXIS2_PLACEMENT_3D('',#932,#933,#934);
#932 = CARTESIAN_POINT('',(0.,-55.5,0.));
#933 = DIRECTION('',(-0.,-1.,-0.));
#934 = DIRECTION('',(-1.,0.,0.));
#935 = ADVANCED_FACE('',(#936),#956,.T.);
#936 = FACE_BOUND('',#937,.T.);
#937 = EDGE_LOOP('',(#938,#939,#948,#955));
#938 = ORIENTED_EDGE('',*,*,#923,.T.);
#939 = ORIENTED_EDGE('',*,*,#940,.T.);
#940 = EDGE_CURVE('',#916,#941,#943,.T.);
#941 = VERTEX_POINT('',#942);
#942 = CARTESIAN_POINT('',(-33.,-285.019043,0.));
#943 = B_SPLINE_CURVE_WITH_KNOTS('',3,(#944,#945,#946,#947),
  .UNSPECIFIED.,.F.,.F.,(4,4),(0.,1.),.PIECEWISE_BEZIER_KNOTS.);
#944 = CARTESIAN_POINT('',(-43.9,-265.353546,0.));
#945 = CARTESIAN_POINT('',(-43.9,-269.178467,0.));
#946 = CARTESIAN_POINT('',(-40.245365,-285.019043,0.));
#947 = CARTESIAN_POINT('',(-33.,-285.019043,0.));
#948 = ORIENTED_EDGE('',*,*,#949,.F.);
#949 = EDGE_CURVE('',#941,#941,#950,.T.);
#950 = CIRCLE('',#951,33.);
#951 = AXIS2_PLACEMENT_3D('',#952,#953,#954);
#952 = CARTESIAN_POINT('',(0.,-285.019043,0.));
#953 = DIRECTION('',(0.,1.,-0.));
#954 = DIRECTION('',(-1.,0.,0.));
#955 = ORIENTED_EDGE('',*,*,#940,.F.);
#956 = SURFACE_OF_REVOLUTION('',#957,#962);
#957 = B_SPLINE_CURVE_WITH_KNOTS('',3,(#958,#959,#960,#961),
  .UNSPECIFIED.,.F.,.F.,(4,4),(0.,1.),.PIECEWISE_BEZIER_KNOTS.);
#958 = CARTESIAN_POINT('',(-43.9,-265.353546,0.));
#959 = CARTESIAN_POINT('',(-43.9,-269.178467,0.));
#960 = CARTESIAN_POINT('',(-40.245365,-285.019043,0.));
#961 = CARTESIAN_POINT('',(-33.,-285.019043,0.));
#962 = AXIS1_PLACEMENT('',#963,#964);
#963 = CARTESIAN_POINT('',(0.,0.,0.));
#964 = DIRECTION('',(0.,1.,0.));
#965 = ADVANCED_FACE('',(#966),#969,.T.);
#966 = FACE_BOUND('',#967,.T.);
#967 = EDGE_LOOP('',(#968));
#968 = ORIENTED_EDGE('',*,*,#949,.T.);
#969 = PLANE('',#970);
#970 = AXIS2_PLACEMENT_3D('',#971,#972,#973);
#971 = CARTESIAN_POINT('',(0.,-285.019043,0.));
#972 = DIRECTION('',(0.,1.,0.));
#973 = DIRECTION('',(-1.,0.,0.));
#974 = ( GEOMETRIC_REPRESENTATION_CONTEXT(3) 
GLOBAL_UNCERTAINTY_ASSIGNED_CONTEXT((#978)) GLOBAL_UNIT_ASSIGNED_CONTEXT
((#975,#976,#977)) REPRESENTATION_CONTEXT('Context #1',
  '3D Context with UNIT and UNCERTAINTY') );
#975 = ( LENGTH_UNIT() NAMED_UNIT(*) SI_UNIT(.MILLI.,.METRE.) );
#976 = ( NAMED_UNIT(*) PLANE_ANGLE_UNIT() SI_UNIT($,.RADIAN.) );
#977 = ( NAMED_UNIT(*) SI_UNIT($,.STERADIAN.) SOLID_ANGLE_UNIT() );
#978 = UNCERTAINTY_MEASURE_WITH_UNIT(LENGTH_MEASURE(2.E-05),#975,
  'distance_accuracy_value','confusion accuracy');
#979 = PRODUCT_RELATED_PRODUCT_CATEGORY('part',$,(#7));
#980 = MECHANICAL_DESIGN_GEOMETRIC_PRESENTATION_REPRESENTATION('',(#981)
  ,#974);
#981 = STYLED_ITEM('color',(#982),#15);
#982 = PRESENTATION_STYLE_ASSIGNMENT((#983,#989));
#983 = SURFACE_STYLE_USAGE(.BOTH.,#984);
#984 = SURFACE_SIDE_STYLE('',(#985));
#985 = SURFACE_STYLE_FILL_AREA(#986);
#986 = FILL_AREA_STYLE('',(#987));
#987 = FILL_AREA_STYLE_COLOUR('',#988);
#988 = COLOUR_RGB('',0.678431390124,0.709803936702,0.741176476869);
#989 = CURVE_STYLE('',#990,POSITIVE_LENGTH_MEASURE(0.1),#991);
#990 = DRAUGHTING_PRE_DEFINED_CURVE_FONT('continuous');
#991 = COLOUR_RGB('',9.803921802644E-02,9.803921802644E-02,
  9.803921802644E-02);
ENDSEC;
END-ISO-10303-21;
