ISO-10303-21;
HEADER;
FILE_DESCRIPTION(('FreeCAD Model'),'2;1');
FILE_NAME('Open CASCADE Shape Model','2026-06-27T20:59:50',(''),(''),
  'Open CASCADE STEP processor 7.8','FreeCAD','Unknown');
FILE_SCHEMA(('AUTOMOTIVE_DESIGN { 1 0 10303 214 1 1 1 1 }'));
ENDSEC;
DATA;
#1 = APPLICATION_PROTOCOL_DEFINITION('international standard',
  'automotive_design',2000,#2);
#2 = APPLICATION_CONTEXT(
  'core data for automotive mechanical design processes');
#3 = SHAPE_DEFINITION_REPRESENTATION(#4,#10);
#4 = PRODUCT_DEFINITION_SHAPE('','',#5);
#5 = PRODUCT_DEFINITION('design','',#6,#9);
#6 = PRODUCT_DEFINITION_FORMATION('','',#7);
#7 = PRODUCT('X1 Bouteille soda 2L','X1 Bouteille soda 2L','',(#8));
#8 = PRODUCT_CONTEXT('',#2,'mechanical');
#9 = PRODUCT_DEFINITION_CONTEXT('part definition',#2,'design');
#10 = ADVANCED_BREP_SHAPE_REPRESENTATION('',(#11,#15),#1026);
#11 = AXIS2_PLACEMENT_3D('',#12,#13,#14);
#12 = CARTESIAN_POINT('',(0.,0.,0.));
#13 = DIRECTION('',(0.,0.,1.));
#14 = DIRECTION('',(1.,0.,-0.));
#15 = MANIFOLD_SOLID_BREP('',#16);
#16 = CLOSED_SHELL('',(#17,#50,#70,#95,#125,#151,#176,#201,#231,#251,
    #289,#314,#339,#364,#402,#451,#481,#509,#558,#610,#635,#687,#723,
    #762,#814,#844,#896,#932,#952,#964,#989,#1014));
#17 = ADVANCED_FACE('',(#18),#45,.T.);
#18 = FACE_BOUND('',#19,.F.);
#19 = EDGE_LOOP('',(#20,#29,#37,#44));
#20 = ORIENTED_EDGE('',*,*,#21,.T.);
#21 = EDGE_CURVE('',#22,#22,#24,.T.);
#22 = VERTEX_POINT('',#23);
#23 = CARTESIAN_POINT('',(-16.5,0.,0.));
#24 = CIRCLE('',#25,16.5);
#25 = AXIS2_PLACEMENT_3D('',#26,#27,#28);
#26 = CARTESIAN_POINT('',(0.,0.,0.));
#27 = DIRECTION('',(0.,1.,-0.));
#28 = DIRECTION('',(-1.,0.,0.));
#29 = ORIENTED_EDGE('',*,*,#30,.T.);
#30 = EDGE_CURVE('',#22,#31,#33,.T.);
#31 = VERTEX_POINT('',#32);
#32 = CARTESIAN_POINT('',(-16.5,-1.09419780457,0.));
#33 = LINE('',#34,#35);
#34 = CARTESIAN_POINT('',(-16.5,0.,0.));
#35 = VECTOR('',#36,1.);
#36 = DIRECTION('',(0.,-1.,0.));
#37 = ORIENTED_EDGE('',*,*,#38,.F.);
#38 = EDGE_CURVE('',#31,#31,#39,.T.);
#39 = CIRCLE('',#40,16.5);
#40 = AXIS2_PLACEMENT_3D('',#41,#42,#43);
#41 = CARTESIAN_POINT('',(0.,-1.09419780457,0.));
#42 = DIRECTION('',(0.,1.,-0.));
#43 = DIRECTION('',(-1.,0.,0.));
#44 = ORIENTED_EDGE('',*,*,#30,.F.);
#45 = CYLINDRICAL_SURFACE('',#46,16.5);
#46 = AXIS2_PLACEMENT_3D('',#47,#48,#49);
#47 = CARTESIAN_POINT('',(0.,0.,0.));
#48 = DIRECTION('',(-0.,-1.,-0.));
#49 = DIRECTION('',(-1.,0.,0.));
#50 = ADVANCED_FACE('',(#51,#54),#65,.F.);
#51 = FACE_BOUND('',#52,.F.);
#52 = EDGE_LOOP('',(#53));
#53 = ORIENTED_EDGE('',*,*,#21,.F.);
#54 = FACE_BOUND('',#55,.F.);
#55 = EDGE_LOOP('',(#56));
#56 = ORIENTED_EDGE('',*,*,#57,.T.);
#57 = EDGE_CURVE('',#58,#58,#60,.T.);
#58 = VERTEX_POINT('',#59);
#59 = CARTESIAN_POINT('',(-12.88,0.,0.));
#60 = CIRCLE('',#61,12.88);
#61 = AXIS2_PLACEMENT_3D('',#62,#63,#64);
#62 = CARTESIAN_POINT('',(0.,0.,0.));
#63 = DIRECTION('',(0.,1.,-0.));
#64 = DIRECTION('',(-1.,0.,0.));
#65 = PLANE('',#66);
#66 = AXIS2_PLACEMENT_3D('',#67,#68,#69);
#67 = CARTESIAN_POINT('',(0.,0.,0.));
#68 = DIRECTION('',(-0.,-1.,-0.));
#69 = DIRECTION('',(1.,0.,0.));
#70 = ADVANCED_FACE('',(#71),#90,.T.);
#71 = FACE_BOUND('',#72,.F.);
#72 = EDGE_LOOP('',(#73,#74,#82,#89));
#73 = ORIENTED_EDGE('',*,*,#38,.T.);
#74 = ORIENTED_EDGE('',*,*,#75,.T.);
#75 = EDGE_CURVE('',#31,#76,#78,.T.);
#76 = VERTEX_POINT('',#77);
#77 = CARTESIAN_POINT('',(-12.88350373297,-2.06323505875,0.));
#78 = LINE('',#79,#80);
#79 = CARTESIAN_POINT('',(-16.5,-1.09419780457,0.));
#80 = VECTOR('',#81,1.);
#81 = DIRECTION('',(0.965925826289,-0.258819045103,0.));
#82 = ORIENTED_EDGE('',*,*,#83,.F.);
#83 = EDGE_CURVE('',#76,#76,#84,.T.);
#84 = CIRCLE('',#85,12.883503732975);
#85 = AXIS2_PLACEMENT_3D('',#86,#87,#88);
#86 = CARTESIAN_POINT('',(0.,-2.06323505875,0.));
#87 = DIRECTION('',(0.,1.,-0.));
#88 = DIRECTION('',(-1.,0.,0.));
#89 = ORIENTED_EDGE('',*,*,#75,.F.);
#90 = CONICAL_SURFACE('',#91,16.5,1.308996938996);
#91 = AXIS2_PLACEMENT_3D('',#92,#93,#94);
#92 = CARTESIAN_POINT('',(0.,-1.09419780457,0.));
#93 = DIRECTION('',(0.,1.,0.));
#94 = DIRECTION('',(-1.,0.,0.));
#95 = ADVANCED_FACE('',(#96),#116,.T.);
#96 = FACE_BOUND('',#97,.T.);
#97 = EDGE_LOOP('',(#98,#107,#108,#109));
#98 = ORIENTED_EDGE('',*,*,#99,.F.);
#99 = EDGE_CURVE('',#58,#100,#102,.T.);
#100 = VERTEX_POINT('',#101);
#101 = CARTESIAN_POINT('',(-53.5,80.,0.));
#102 = B_SPLINE_CURVE_WITH_KNOTS('',3,(#103,#104,#105,#106),
  .UNSPECIFIED.,.F.,.F.,(4,4),(0.,1.),.PIECEWISE_BEZIER_KNOTS.);
#103 = CARTESIAN_POINT('',(-12.88,0.,0.));
#104 = CARTESIAN_POINT('',(-12.88,21.6,0.));
#105 = CARTESIAN_POINT('',(-47.10832006577,14.81260530119,0.));
#106 = CARTESIAN_POINT('',(-53.5,80.,0.));
#107 = ORIENTED_EDGE('',*,*,#57,.T.);
#108 = ORIENTED_EDGE('',*,*,#99,.T.);
#109 = ORIENTED_EDGE('',*,*,#110,.F.);
#110 = EDGE_CURVE('',#100,#100,#111,.T.);
#111 = CIRCLE('',#112,53.5);
#112 = AXIS2_PLACEMENT_3D('',#113,#114,#115);
#113 = CARTESIAN_POINT('',(0.,80.,0.));
#114 = DIRECTION('',(0.,1.,-0.));
#115 = DIRECTION('',(-1.,0.,0.));
#116 = SURFACE_OF_REVOLUTION('',#117,#122);
#117 = B_SPLINE_CURVE_WITH_KNOTS('',3,(#118,#119,#120,#121),
  .UNSPECIFIED.,.F.,.F.,(4,4),(0.,1.),.PIECEWISE_BEZIER_KNOTS.);
#118 = CARTESIAN_POINT('',(-12.88,0.,0.));
#119 = CARTESIAN_POINT('',(-12.88,21.6,0.));
#120 = CARTESIAN_POINT('',(-47.10832006577,14.81260530119,0.));
#121 = CARTESIAN_POINT('',(-53.5,80.,0.));
#122 = AXIS1_PLACEMENT('',#123,#124);
#123 = CARTESIAN_POINT('',(0.,0.,0.));
#124 = DIRECTION('',(0.,1.,0.));
#125 = ADVANCED_FACE('',(#126),#146,.F.);
#126 = FACE_BOUND('',#127,.T.);
#127 = EDGE_LOOP('',(#128,#137,#144,#145));
#128 = ORIENTED_EDGE('',*,*,#129,.T.);
#129 = EDGE_CURVE('',#130,#130,#132,.T.);
#130 = VERTEX_POINT('',#131);
#131 = CARTESIAN_POINT('',(-12.88350373297,-4.03,0.));
#132 = CIRCLE('',#133,12.883503732975);
#133 = AXIS2_PLACEMENT_3D('',#134,#135,#136);
#134 = CARTESIAN_POINT('',(0.,-4.03,0.));
#135 = DIRECTION('',(0.,1.,-0.));
#136 = DIRECTION('',(-1.,0.,0.));
#137 = ORIENTED_EDGE('',*,*,#138,.T.);
#138 = EDGE_CURVE('',#130,#76,#139,.T.);
#139 = CIRCLE('',#140,1.08);
#140 = AXIS2_PLACEMENT_3D('',#141,#142,#143);
#141 = CARTESIAN_POINT('',(-13.33,-3.046617529375,0.));
#142 = DIRECTION('',(0.,0.,1.));
#143 = DIRECTION('',(1.,0.,0.));
#144 = ORIENTED_EDGE('',*,*,#83,.F.);
#145 = ORIENTED_EDGE('',*,*,#138,.F.);
#146 = TOROIDAL_SURFACE('',#147,13.33,1.08);
#147 = AXIS2_PLACEMENT_3D('',#148,#149,#150);
#148 = CARTESIAN_POINT('',(0.,-3.046617529375,0.));
#149 = DIRECTION('',(-0.,-1.,-0.));
#150 = DIRECTION('',(-1.,0.,0.));
#151 = ADVANCED_FACE('',(#152),#171,.T.);
#152 = FACE_BOUND('',#153,.T.);
#153 = EDGE_LOOP('',(#154,#155,#163,#170));
#154 = ORIENTED_EDGE('',*,*,#110,.T.);
#155 = ORIENTED_EDGE('',*,*,#156,.T.);
#156 = EDGE_CURVE('',#100,#157,#159,.T.);
#157 = VERTEX_POINT('',#158);
#158 = CARTESIAN_POINT('',(-53.5,228.,0.));
#159 = LINE('',#160,#161);
#160 = CARTESIAN_POINT('',(-53.5,80.,0.));
#161 = VECTOR('',#162,1.);
#162 = DIRECTION('',(0.,1.,0.));
#163 = ORIENTED_EDGE('',*,*,#164,.F.);
#164 = EDGE_CURVE('',#157,#157,#165,.T.);
#165 = CIRCLE('',#166,53.5);
#166 = AXIS2_PLACEMENT_3D('',#167,#168,#169);
#167 = CARTESIAN_POINT('',(0.,228.,0.));
#168 = DIRECTION('',(0.,1.,-0.));
#169 = DIRECTION('',(-1.,0.,0.));
#170 = ORIENTED_EDGE('',*,*,#156,.F.);
#171 = CYLINDRICAL_SURFACE('',#172,53.5);
#172 = AXIS2_PLACEMENT_3D('',#173,#174,#175);
#173 = CARTESIAN_POINT('',(0.,80.,0.));
#174 = DIRECTION('',(0.,1.,0.));
#175 = DIRECTION('',(-1.,0.,0.));
#176 = ADVANCED_FACE('',(#177),#196,.T.);
#177 = FACE_BOUND('',#178,.F.);
#178 = EDGE_LOOP('',(#179,#180,#188,#195));
#179 = ORIENTED_EDGE('',*,*,#129,.T.);
#180 = ORIENTED_EDGE('',*,*,#181,.T.);
#181 = EDGE_CURVE('',#130,#182,#184,.T.);
#182 = VERTEX_POINT('',#183);
#183 = CARTESIAN_POINT('',(-12.88350373297,-5.8,0.));
#184 = LINE('',#185,#186);
#185 = CARTESIAN_POINT('',(-12.88350373297,-4.03,0.));
#186 = VECTOR('',#187,1.);
#187 = DIRECTION('',(0.,-1.,0.));
#188 = ORIENTED_EDGE('',*,*,#189,.F.);
#189 = EDGE_CURVE('',#182,#182,#190,.T.);
#190 = CIRCLE('',#191,12.883503732975);
#191 = AXIS2_PLACEMENT_3D('',#192,#193,#194);
#192 = CARTESIAN_POINT('',(0.,-5.8,0.));
#193 = DIRECTION('',(0.,1.,-0.));
#194 = DIRECTION('',(-1.,0.,0.));
#195 = ORIENTED_EDGE('',*,*,#181,.F.);
#196 = CYLINDRICAL_SURFACE('',#197,12.883503732975);
#197 = AXIS2_PLACEMENT_3D('',#198,#199,#200);
#198 = CARTESIAN_POINT('',(0.,-4.03,0.));
#199 = DIRECTION('',(-0.,-1.,-0.));
#200 = DIRECTION('',(-1.,0.,0.));
#201 = ADVANCED_FACE('',(#202),#222,.T.);
#202 = FACE_BOUND('',#203,.T.);
#203 = EDGE_LOOP('',(#204,#205,#214,#221));
#204 = ORIENTED_EDGE('',*,*,#164,.T.);
#205 = ORIENTED_EDGE('',*,*,#206,.T.);
#206 = EDGE_CURVE('',#157,#207,#209,.T.);
#207 = VERTEX_POINT('',#208);
#208 = CARTESIAN_POINT('',(-54.5,232.,0.));
#209 = B_SPLINE_CURVE_WITH_KNOTS('',3,(#210,#211,#212,#213),
  .UNSPECIFIED.,.F.,.F.,(4,4),(0.,1.),.PIECEWISE_BEZIER_KNOTS.);
#210 = CARTESIAN_POINT('',(-53.5,228.,0.));
#211 = CARTESIAN_POINT('',(-53.5,230.,0.));
#212 = CARTESIAN_POINT('',(-54.5,230.,0.));
#213 = CARTESIAN_POINT('',(-54.5,232.,0.));
#214 = ORIENTED_EDGE('',*,*,#215,.F.);
#215 = EDGE_CURVE('',#207,#207,#216,.T.);
#216 = CIRCLE('',#217,54.5);
#217 = AXIS2_PLACEMENT_3D('',#218,#219,#220);
#218 = CARTESIAN_POINT('',(0.,232.,0.));
#219 = DIRECTION('',(0.,1.,-0.));
#220 = DIRECTION('',(-1.,0.,0.));
#221 = ORIENTED_EDGE('',*,*,#206,.F.);
#222 = SURFACE_OF_REVOLUTION('',#223,#228);
#223 = B_SPLINE_CURVE_WITH_KNOTS('',3,(#224,#225,#226,#227),
  .UNSPECIFIED.,.F.,.F.,(4,4),(0.,1.),.PIECEWISE_BEZIER_KNOTS.);
#224 = CARTESIAN_POINT('',(-53.5,228.,0.));
#225 = CARTESIAN_POINT('',(-53.5,230.,0.));
#226 = CARTESIAN_POINT('',(-54.5,230.,0.));
#227 = CARTESIAN_POINT('',(-54.5,232.,0.));
#228 = AXIS1_PLACEMENT('',#229,#230);
#229 = CARTESIAN_POINT('',(0.,0.,0.));
#230 = DIRECTION('',(0.,1.,0.));
#231 = ADVANCED_FACE('',(#232,#235),#246,.T.);
#232 = FACE_BOUND('',#233,.F.);
#233 = EDGE_LOOP('',(#234));
#234 = ORIENTED_EDGE('',*,*,#189,.T.);
#235 = FACE_BOUND('',#236,.F.);
#236 = EDGE_LOOP('',(#237));
#237 = ORIENTED_EDGE('',*,*,#238,.F.);
#238 = EDGE_CURVE('',#239,#239,#241,.T.);
#239 = VERTEX_POINT('',#240);
#240 = CARTESIAN_POINT('',(-14.,-5.8,0.));
#241 = CIRCLE('',#242,14.);
#242 = AXIS2_PLACEMENT_3D('',#243,#244,#245);
#243 = CARTESIAN_POINT('',(0.,-5.8,0.));
#244 = DIRECTION('',(0.,1.,-0.));
#245 = DIRECTION('',(-1.,0.,0.));
#246 = PLANE('',#247);
#247 = AXIS2_PLACEMENT_3D('',#248,#249,#250);
#248 = CARTESIAN_POINT('',(0.,-5.8,0.));
#249 = DIRECTION('',(0.,1.,0.));
#250 = DIRECTION('',(-1.,-0.,-0.));
#251 = ADVANCED_FACE('',(#252),#276,.T.);
#252 = FACE_BOUND('',#253,.T.);
#253 = EDGE_LOOP('',(#254,#255,#268,#275));
#254 = ORIENTED_EDGE('',*,*,#215,.T.);
#255 = ORIENTED_EDGE('',*,*,#256,.T.);
#256 = EDGE_CURVE('',#207,#257,#259,.T.);
#257 = VERTEX_POINT('',#258);
#258 = CARTESIAN_POINT('',(-1.15293519406E-02,278.26040887932,0.));
#259 = ( BOUNDED_CURVE() B_SPLINE_CURVE(3,(#260,#261,#262,#263,#264,#265
,#266,#267),.UNSPECIFIED.,.F.,.F.) B_SPLINE_CURVE_WITH_KNOTS((4,1,1,1,1,
    4),(0.,0.166666666667,0.333333333333,0.5,0.666666666667,1.),
.UNSPECIFIED.) CURVE() GEOMETRIC_REPRESENTATION_ITEM() 
RATIONAL_B_SPLINE_CURVE((1.,1.,1.,1.,1.,1.872826005081,1.914760484284,1.
)) REPRESENTATION_ITEM('') );
#260 = CARTESIAN_POINT('',(-54.5,232.,0.));
#261 = CARTESIAN_POINT('',(-54.5,255.4296879236,0.));
#262 = CARTESIAN_POINT('',(-43.49572113152,280.,0.));
#263 = CARTESIAN_POINT('',(-33.449337,280.,0.));
#264 = CARTESIAN_POINT('',(-27.25,280.,0.));
#265 = CARTESIAN_POINT('',(-15.36232993318,273.08386815962,0.));
#266 = CARTESIAN_POINT('',(-11.11584087665,278.26040887932,0.));
#267 = CARTESIAN_POINT('',(-1.15293519406E-02,278.26040887932,0.));
#268 = ORIENTED_EDGE('',*,*,#269,.F.);
#269 = EDGE_CURVE('',#257,#257,#270,.T.);
#270 = CIRCLE('',#271,1.15293519406E-02);
#271 = AXIS2_PLACEMENT_3D('',#272,#273,#274);
#272 = CARTESIAN_POINT('',(0.,278.26040887932,0.));
#273 = DIRECTION('',(0.,1.,-0.));
#274 = DIRECTION('',(-1.,0.,0.));
#275 = ORIENTED_EDGE('',*,*,#256,.F.);
#276 = SURFACE_OF_REVOLUTION('',#277,#286);
#277 = ( BOUNDED_CURVE() B_SPLINE_CURVE(3,(#278,#279,#280,#281,#282,#283
,#284,#285),.UNSPECIFIED.,.F.,.F.) B_SPLINE_CURVE_WITH_KNOTS((4,1,1,1,1,
    4),(0.,0.166666666667,0.333333333333,0.5,0.666666666667,1.),
.UNSPECIFIED.) CURVE() GEOMETRIC_REPRESENTATION_ITEM() 
RATIONAL_B_SPLINE_CURVE((1.,1.,1.,1.,1.,1.872826005081,1.914760484284,1.
)) REPRESENTATION_ITEM('') );
#278 = CARTESIAN_POINT('',(-54.5,232.,0.));
#279 = CARTESIAN_POINT('',(-54.5,255.4296879236,0.));
#280 = CARTESIAN_POINT('',(-43.49572113152,280.,0.));
#281 = CARTESIAN_POINT('',(-33.449337,280.,0.));
#282 = CARTESIAN_POINT('',(-27.25,280.,0.));
#283 = CARTESIAN_POINT('',(-15.36232993318,273.08386815962,0.));
#284 = CARTESIAN_POINT('',(-11.11584087665,278.26040887932,0.));
#285 = CARTESIAN_POINT('',(-1.15293519406E-02,278.26040887932,0.));
#286 = AXIS1_PLACEMENT('',#287,#288);
#287 = CARTESIAN_POINT('',(0.,0.,0.));
#288 = DIRECTION('',(0.,1.,0.));
#289 = ADVANCED_FACE('',(#290),#309,.T.);
#290 = FACE_BOUND('',#291,.F.);
#291 = EDGE_LOOP('',(#292,#293,#301,#308));
#292 = ORIENTED_EDGE('',*,*,#238,.T.);
#293 = ORIENTED_EDGE('',*,*,#294,.T.);
#294 = EDGE_CURVE('',#239,#295,#297,.T.);
#295 = VERTEX_POINT('',#296);
#296 = CARTESIAN_POINT('',(-14.,-6.39,0.));
#297 = LINE('',#298,#299);
#298 = CARTESIAN_POINT('',(-14.,-5.8,0.));
#299 = VECTOR('',#300,1.);
#300 = DIRECTION('',(0.,-1.,0.));
#301 = ORIENTED_EDGE('',*,*,#302,.F.);
#302 = EDGE_CURVE('',#295,#295,#303,.T.);
#303 = CIRCLE('',#304,14.);
#304 = AXIS2_PLACEMENT_3D('',#305,#306,#307);
#305 = CARTESIAN_POINT('',(0.,-6.39,0.));
#306 = DIRECTION('',(0.,1.,-0.));
#307 = DIRECTION('',(-1.,0.,0.));
#308 = ORIENTED_EDGE('',*,*,#294,.F.);
#309 = CYLINDRICAL_SURFACE('',#310,14.);
#310 = AXIS2_PLACEMENT_3D('',#311,#312,#313);
#311 = CARTESIAN_POINT('',(0.,-5.8,0.));
#312 = DIRECTION('',(-0.,-1.,-0.));
#313 = DIRECTION('',(-1.,0.,0.));
#314 = ADVANCED_FACE('',(#315),#334,.F.);
#315 = FACE_BOUND('',#316,.T.);
#316 = EDGE_LOOP('',(#317,#318,#326,#333));
#317 = ORIENTED_EDGE('',*,*,#269,.T.);
#318 = ORIENTED_EDGE('',*,*,#319,.T.);
#319 = EDGE_CURVE('',#257,#320,#322,.T.);
#320 = VERTEX_POINT('',#321);
#321 = CARTESIAN_POINT('',(-3.292870706647E-02,275.03159529492,0.));
#322 = LINE('',#323,#324);
#323 = CARTESIAN_POINT('',(-1.15293519406E-02,278.26040887932,0.));
#324 = VECTOR('',#325,1.);
#325 = DIRECTION('',(-6.627476190468E-03,-0.999978038039,0.));
#326 = ORIENTED_EDGE('',*,*,#327,.F.);
#327 = EDGE_CURVE('',#320,#320,#328,.T.);
#328 = CIRCLE('',#329,3.292870706647E-02);
#329 = AXIS2_PLACEMENT_3D('',#330,#331,#332);
#330 = CARTESIAN_POINT('',(0.,275.03159529492,0.));
#331 = DIRECTION('',(0.,1.,-0.));
#332 = DIRECTION('',(-1.,0.,0.));
#333 = ORIENTED_EDGE('',*,*,#319,.F.);
#334 = CONICAL_SURFACE('',#335,1.15293519406E-02,6.627524708353E-03);
#335 = AXIS2_PLACEMENT_3D('',#336,#337,#338);
#336 = CARTESIAN_POINT('',(0.,278.26040887932,0.));
#337 = DIRECTION('',(-0.,-1.,-0.));
#338 = DIRECTION('',(-1.,0.,0.));
#339 = ADVANCED_FACE('',(#340),#359,.T.);
#340 = FACE_BOUND('',#341,.F.);
#341 = EDGE_LOOP('',(#342,#343,#351,#358));
#342 = ORIENTED_EDGE('',*,*,#302,.T.);
#343 = ORIENTED_EDGE('',*,*,#344,.T.);
#344 = EDGE_CURVE('',#295,#345,#347,.T.);
#345 = VERTEX_POINT('',#346);
#346 = CARTESIAN_POINT('',(-12.1,-7.984289299237,0.));
#347 = LINE('',#348,#349);
#348 = CARTESIAN_POINT('',(-14.,-6.39,0.));
#349 = VECTOR('',#350,1.);
#350 = DIRECTION('',(0.766044443119,-0.642787609687,0.));
#351 = ORIENTED_EDGE('',*,*,#352,.F.);
#352 = EDGE_CURVE('',#345,#345,#353,.T.);
#353 = CIRCLE('',#354,12.1);
#354 = AXIS2_PLACEMENT_3D('',#355,#356,#357);
#355 = CARTESIAN_POINT('',(0.,-7.984289299237,0.));
#356 = DIRECTION('',(0.,1.,-0.));
#357 = DIRECTION('',(-1.,0.,0.));
#358 = ORIENTED_EDGE('',*,*,#344,.F.);
#359 = CONICAL_SURFACE('',#360,14.,0.872664625997);
#360 = AXIS2_PLACEMENT_3D('',#361,#362,#363);
#361 = CARTESIAN_POINT('',(0.,-6.39,0.));
#362 = DIRECTION('',(0.,1.,0.));
#363 = DIRECTION('',(-1.,0.,0.));
#364 = ADVANCED_FACE('',(#365),#389,.T.);
#365 = FACE_BOUND('',#366,.T.);
#366 = EDGE_LOOP('',(#367,#368,#381,#388));
#367 = ORIENTED_EDGE('',*,*,#327,.T.);
#368 = ORIENTED_EDGE('',*,*,#369,.T.);
#369 = EDGE_CURVE('',#320,#370,#372,.T.);
#370 = VERTEX_POINT('',#371);
#371 = CARTESIAN_POINT('',(-54.,232.,0.));
#372 = B_SPLINE_CURVE_WITH_KNOTS('',3,(#373,#374,#375,#376,#377,#378,
    #379,#380),.UNSPECIFIED.,.F.,.F.,(4,1,1,1,1,4),(0.,0.2,0.4,0.6,0.8,
    1.),.QUASI_UNIFORM_KNOTS.);
#373 = CARTESIAN_POINT('',(-3.292870706647E-02,275.03159529492,0.));
#374 = CARTESIAN_POINT('',(-9.190005515775,275.03159529492,0.));
#375 = CARTESIAN_POINT('',(-17.9928270619,270.29761150527,0.));
#376 = CARTESIAN_POINT('',(-18.55153700968,276.11250278914,0.));
#377 = CARTESIAN_POINT('',(-34.70127089936,280.93731133814,0.));
#378 = CARTESIAN_POINT('',(-45.76625739287,275.45056585828,0.));
#379 = CARTESIAN_POINT('',(-53.81345,251.419998163,0.));
#380 = CARTESIAN_POINT('',(-54.,232.,0.));
#381 = ORIENTED_EDGE('',*,*,#382,.F.);
#382 = EDGE_CURVE('',#370,#370,#383,.T.);
#383 = CIRCLE('',#384,54.);
#384 = AXIS2_PLACEMENT_3D('',#385,#386,#387);
#385 = CARTESIAN_POINT('',(0.,232.,0.));
#386 = DIRECTION('',(0.,1.,-0.));
#387 = DIRECTION('',(-1.,0.,0.));
#388 = ORIENTED_EDGE('',*,*,#369,.F.);
#389 = SURFACE_OF_REVOLUTION('',#390,#399);
#390 = B_SPLINE_CURVE_WITH_KNOTS('',3,(#391,#392,#393,#394,#395,#396,
    #397,#398),.UNSPECIFIED.,.F.,.F.,(4,1,1,1,1,4),(0.,0.2,0.4,0.6,0.8,
    1.),.QUASI_UNIFORM_KNOTS.);
#391 = CARTESIAN_POINT('',(-3.292870706647E-02,275.03159529492,0.));
#392 = CARTESIAN_POINT('',(-9.190005515775,275.03159529492,0.));
#393 = CARTESIAN_POINT('',(-17.9928270619,270.29761150527,0.));
#394 = CARTESIAN_POINT('',(-18.55153700968,276.11250278914,0.));
#395 = CARTESIAN_POINT('',(-34.70127089936,280.93731133814,0.));
#396 = CARTESIAN_POINT('',(-45.76625739287,275.45056585828,0.));
#397 = CARTESIAN_POINT('',(-53.81345,251.419998163,0.));
#398 = CARTESIAN_POINT('',(-54.,232.,0.));
#399 = AXIS1_PLACEMENT('',#400,#401);
#400 = CARTESIAN_POINT('',(0.,0.,0.));
#401 = DIRECTION('',(0.,1.,0.));
#402 = ADVANCED_FACE('',(#403),#446,.T.);
#403 = FACE_BOUND('',#404,.F.);
#404 = EDGE_LOOP('',(#405,#413,#414,#415,#432,#440));
#405 = ORIENTED_EDGE('',*,*,#406,.F.);
#406 = EDGE_CURVE('',#345,#407,#409,.T.);
#407 = VERTEX_POINT('',#408);
#408 = CARTESIAN_POINT('',(-12.1000001141,-8.235524457094,1.0211716E-08)
  );
#409 = LINE('',#410,#411);
#410 = CARTESIAN_POINT('',(-12.1,-7.984289299237,0.));
#411 = VECTOR('',#412,1.);
#412 = DIRECTION('',(0.,-1.,0.));
#413 = ORIENTED_EDGE('',*,*,#352,.T.);
#414 = ORIENTED_EDGE('',*,*,#406,.T.);
#415 = ORIENTED_EDGE('',*,*,#416,.F.);
#416 = EDGE_CURVE('',#417,#407,#419,.T.);
#417 = VERTEX_POINT('',#418);
#418 = CARTESIAN_POINT('',(-12.09999999727,-10.93552445599,1.2418113E-08
    ));
#419 = B_SPLINE_CURVE_WITH_KNOTS('',11,(#420,#421,#422,#423,#424,#425,
    #426,#427,#428,#429,#430,#431),.UNSPECIFIED.,.F.,.F.,(12,12),(0.,
    6.303048278758),.PIECEWISE_BEZIER_KNOTS.);
#420 = CARTESIAN_POINT('',(-12.09999999727,-10.93552445602,
    1.241812755E-08));
#421 = CARTESIAN_POINT('',(-12.10000023935,-10.6900699128,6.911503940135
    ));
#422 = CARTESIAN_POINT('',(-7.758307631082,-10.44461536173,
    13.822850865747));
#423 = CARTESIAN_POINT('',(0.934082073251,-10.19916082524,
    17.704101128998));
#424 = CARTESIAN_POINT('',(11.553168552608,-9.953706273879,
    15.513083706496));
#425 = CARTESIAN_POINT('',(19.471048462477,-9.708251720337,
    6.397612737908));
#426 = CARTESIAN_POINT('',(19.471049144956,-9.462797200634,
    -6.397613257005));
#427 = CARTESIAN_POINT('',(11.553168005272,-9.217342622264,
    -15.51308282033));
#428 = CARTESIAN_POINT('',(0.934082391585,-8.971888101866,
    -17.70410179231));
#429 = CARTESIAN_POINT('',(-7.758308010021,-8.726433545297,
    -13.82285062324));
#430 = CARTESIAN_POINT('',(-12.10000000915,-8.480979001528,
    -6.911503917684));
#431 = CARTESIAN_POINT('',(-12.1000001141,-8.235524457094,
    1.021171605E-08));
#432 = ORIENTED_EDGE('',*,*,#433,.F.);
#433 = EDGE_CURVE('',#434,#417,#436,.T.);
#434 = VERTEX_POINT('',#435);
#435 = CARTESIAN_POINT('',(-12.1000001141,-9.900000001042,1.0211885E-08)
  );
#436 = LINE('',#437,#438);
#437 = CARTESIAN_POINT('',(-12.1,-7.984289299237,0.));
#438 = VECTOR('',#439,1.);
#439 = DIRECTION('',(0.,-1.,0.));
#440 = ORIENTED_EDGE('',*,*,#441,.F.);
#441 = EDGE_CURVE('',#407,#434,#442,.T.);
#442 = LINE('',#443,#444);
#443 = CARTESIAN_POINT('',(-12.1,-7.984289299237,0.));
#444 = VECTOR('',#445,1.);
#445 = DIRECTION('',(0.,-1.,0.));
#446 = CYLINDRICAL_SURFACE('',#447,12.1);
#447 = AXIS2_PLACEMENT_3D('',#448,#449,#450);
#448 = CARTESIAN_POINT('',(0.,-7.984289299237,0.));
#449 = DIRECTION('',(-0.,-1.,-0.));
#450 = DIRECTION('',(-1.,0.,0.));
#451 = ADVANCED_FACE('',(#452),#472,.T.);
#452 = FACE_BOUND('',#453,.T.);
#453 = EDGE_LOOP('',(#454,#455,#464,#471));
#454 = ORIENTED_EDGE('',*,*,#382,.T.);
#455 = ORIENTED_EDGE('',*,*,#456,.T.);
#456 = EDGE_CURVE('',#370,#457,#459,.T.);
#457 = VERTEX_POINT('',#458);
#458 = CARTESIAN_POINT('',(-53.,228.,0.));
#459 = B_SPLINE_CURVE_WITH_KNOTS('',3,(#460,#461,#462,#463),
  .UNSPECIFIED.,.F.,.F.,(4,4),(0.,1.),.PIECEWISE_BEZIER_KNOTS.);
#460 = CARTESIAN_POINT('',(-54.,232.,0.));
#461 = CARTESIAN_POINT('',(-53.967117,230.334717,0.));
#462 = CARTESIAN_POINT('',(-53.016384,229.755356,0.));
#463 = CARTESIAN_POINT('',(-53.,228.,0.));
#464 = ORIENTED_EDGE('',*,*,#465,.F.);
#465 = EDGE_CURVE('',#457,#457,#466,.T.);
#466 = CIRCLE('',#467,53.);
#467 = AXIS2_PLACEMENT_3D('',#468,#469,#470);
#468 = CARTESIAN_POINT('',(0.,228.,0.));
#469 = DIRECTION('',(0.,1.,-0.));
#470 = DIRECTION('',(-1.,0.,0.));
#471 = ORIENTED_EDGE('',*,*,#456,.F.);
#472 = SURFACE_OF_REVOLUTION('',#473,#478);
#473 = B_SPLINE_CURVE_WITH_KNOTS('',3,(#474,#475,#476,#477),
  .UNSPECIFIED.,.F.,.F.,(4,4),(0.,1.),.PIECEWISE_BEZIER_KNOTS.);
#474 = CARTESIAN_POINT('',(-54.,232.,0.));
#475 = CARTESIAN_POINT('',(-53.967117,230.334717,0.));
#476 = CARTESIAN_POINT('',(-53.016384,229.755356,0.));
#477 = CARTESIAN_POINT('',(-53.,228.,0.));
#478 = AXIS1_PLACEMENT('',#479,#480);
#479 = CARTESIAN_POINT('',(0.,0.,0.));
#480 = DIRECTION('',(0.,1.,0.));
#481 = ADVANCED_FACE('',(#482),#504,.T.);
#482 = FACE_BOUND('',#483,.F.);
#483 = EDGE_LOOP('',(#484,#485,#492,#499));
#484 = ORIENTED_EDGE('',*,*,#441,.T.);
#485 = ORIENTED_EDGE('',*,*,#486,.F.);
#486 = EDGE_CURVE('',#487,#434,#489,.T.);
#487 = VERTEX_POINT('',#488);
#488 = CARTESIAN_POINT('',(-13.7000001141,-9.317647626187,1.0217342E-08)
  );
#489 = B_SPLINE_CURVE_WITH_KNOTS('',1,(#490,#491),.UNSPECIFIED.,.F.,.F.,
  (2,2),(-1.702684435961,-0.),.PIECEWISE_BEZIER_KNOTS.);
#490 = CARTESIAN_POINT('',(-13.7000001141,-9.317647626187,
    1.021734183E-08));
#491 = CARTESIAN_POINT('',(-12.1000001141,-9.900000001042,
    1.021188537E-08));
#492 = ORIENTED_EDGE('',*,*,#493,.F.);
#493 = EDGE_CURVE('',#494,#487,#496,.T.);
#494 = VERTEX_POINT('',#495);
#495 = CARTESIAN_POINT('',(-13.7000001141,-8.517647626199,1.0217256E-08)
  );
#496 = B_SPLINE_CURVE_WITH_KNOTS('',1,(#497,#498),.UNSPECIFIED.,.F.,.F.,
  (2,2),(-0.8,-0.),.PIECEWISE_BEZIER_KNOTS.);
#497 = CARTESIAN_POINT('',(-13.7000001141,-8.517647626199,
    1.021725565E-08));
#498 = CARTESIAN_POINT('',(-13.7000001141,-9.317647626187,
    1.021734183E-08));
#499 = ORIENTED_EDGE('',*,*,#500,.F.);
#500 = EDGE_CURVE('',#407,#494,#501,.T.);
#501 = B_SPLINE_CURVE_WITH_KNOTS('',1,(#502,#503),.UNSPECIFIED.,.F.,.F.,
  (2,2),(-1.624682579017,-0.),.PIECEWISE_BEZIER_KNOTS.);
#502 = CARTESIAN_POINT('',(-12.1000001141,-8.235524457094,
    1.021171605E-08));
#503 = CARTESIAN_POINT('',(-13.7000001141,-8.517647626199,
    1.021725504E-08));
#504 = PLANE('',#505);
#505 = AXIS2_PLACEMENT_3D('',#506,#507,#508);
#506 = CARTESIAN_POINT('',(-12.7805941689,-9.012205391848,
    1.021393971E-08));
#507 = DIRECTION('',(3.43532E-12,1.0092E-13,1.));
#508 = DIRECTION('',(1.,-7.8859E-13,-3.43532E-12));
#509 = ADVANCED_FACE('',(#510),#553,.T.);
#510 = FACE_BOUND('',#511,.F.);
#511 = EDGE_LOOP('',(#512,#529,#530,#547));
#512 = ORIENTED_EDGE('',*,*,#513,.T.);
#513 = EDGE_CURVE('',#514,#434,#516,.T.);
#514 = VERTEX_POINT('',#515);
#515 = CARTESIAN_POINT('',(-12.09999999727,-12.59999999997,1.2418291E-08
    ));
#516 = B_SPLINE_CURVE_WITH_KNOTS('',11,(#517,#518,#519,#520,#521,#522,
    #523,#524,#525,#526,#527,#528),.UNSPECIFIED.,.F.,.F.,(12,12),(0.,
    6.303048278758),.PIECEWISE_BEZIER_KNOTS.);
#517 = CARTESIAN_POINT('',(-12.09999999727,-12.59999999997,
    1.241830397E-08));
#518 = CARTESIAN_POINT('',(-12.10000023935,-12.35454545675,
    6.911503940136));
#519 = CARTESIAN_POINT('',(-7.758307631075,-12.10909090568,
    13.822850865748));
#520 = CARTESIAN_POINT('',(0.934082073238,-11.86363636919,
    17.704101128995));
#521 = CARTESIAN_POINT('',(11.553168552625,-11.61818181782,
    15.513083706498));
#522 = CARTESIAN_POINT('',(19.471048462467,-11.37272726428,
    6.397612737917));
#523 = CARTESIAN_POINT('',(19.471049144958,-11.12727274458,
    -6.397613257027));
#524 = CARTESIAN_POINT('',(11.553168005277,-10.8818181662,
    -15.51308282031));
#525 = CARTESIAN_POINT('',(0.934082391581,-10.63636364581,
    -17.70410179233));
#526 = CARTESIAN_POINT('',(-7.758308010021,-10.39090908924,
    -13.82285062324));
#527 = CARTESIAN_POINT('',(-12.10000000915,-10.14545454547,
    -6.911503917685));
#528 = CARTESIAN_POINT('',(-12.1000001141,-9.900000001042,
    1.021188537E-08));
#529 = ORIENTED_EDGE('',*,*,#433,.T.);
#530 = ORIENTED_EDGE('',*,*,#531,.F.);
#531 = EDGE_CURVE('',#532,#417,#534,.T.);
#532 = VERTEX_POINT('',#533);
#533 = CARTESIAN_POINT('',(-12.1,-13.63552445604,-3.E-15));
#534 = B_SPLINE_CURVE_WITH_KNOTS('',11,(#535,#536,#537,#538,#539,#540,
    #541,#542,#543,#544,#545,#546),.UNSPECIFIED.,.F.,.F.,(12,12),(0.,
    6.303048278758),.PIECEWISE_BEZIER_KNOTS.);
#535 = CARTESIAN_POINT('',(-12.1,-13.63552445604,-2.59E-15));
#536 = CARTESIAN_POINT('',(-12.10000025498,-13.39006991286,
    6.911503930831));
#537 = CARTESIAN_POINT('',(-7.758307633328,-13.1446153613,
    13.822850849812));
#538 = CARTESIAN_POINT('',(0.934082108648,-12.89916082857,
    17.704101108652));
#539 = CARTESIAN_POINT('',(11.553168259242,-12.65370626361,
    15.513084021741));
#540 = CARTESIAN_POINT('',(19.471049037703,-12.40825173914,
    6.397611886061));
#541 = CARTESIAN_POINT('',(19.471048454286,-12.16279717965,
    -6.397611846268));
#542 = CARTESIAN_POINT('',(11.553168658598,-11.91734263621,
    -15.51308414256));
#543 = CARTESIAN_POINT('',(0.934081871867,-11.67188809831,
    -17.70410105482));
#544 = CARTESIAN_POINT('',(-7.75830755762,-11.42643354309,
    -13.82285084983));
#545 = CARTESIAN_POINT('',(-12.10000028494,-11.18097900399,
    -6.911503918189));
#546 = CARTESIAN_POINT('',(-12.09999999727,-10.93552445602,
    1.24182394E-08));
#547 = ORIENTED_EDGE('',*,*,#548,.F.);
#548 = EDGE_CURVE('',#514,#532,#549,.T.);
#549 = LINE('',#550,#551);
#550 = CARTESIAN_POINT('',(-12.1,-7.984289299237,0.));
#551 = VECTOR('',#552,1.);
#552 = DIRECTION('',(0.,-1.,0.));
#553 = CYLINDRICAL_SURFACE('',#554,12.1);
#554 = AXIS2_PLACEMENT_3D('',#555,#556,#557);
#555 = CARTESIAN_POINT('',(0.,-7.984289299237,0.));
#556 = DIRECTION('',(-0.,-1.,-0.));
#557 = DIRECTION('',(-1.,0.,0.));
#558 = ADVANCED_FACE('',(#559),#585,.T.);
#559 = FACE_BOUND('',#560,.T.);
#560 = EDGE_LOOP('',(#561,#562,#569,#584));
#561 = ORIENTED_EDGE('',*,*,#416,.F.);
#562 = ORIENTED_EDGE('',*,*,#563,.T.);
#563 = EDGE_CURVE('',#417,#564,#566,.T.);
#564 = VERTEX_POINT('',#565);
#565 = CARTESIAN_POINT('',(-13.69999999727,-11.21764762513,1.2420856E-08
    ));
#566 = B_SPLINE_CURVE_WITH_KNOTS('',1,(#567,#568),.UNSPECIFIED.,.F.,.F.,
  (2,2),(-1.624682579017,-0.),.PIECEWISE_BEZIER_KNOTS.);
#567 = CARTESIAN_POINT('',(-12.09999999727,-10.93552445602,
    1.24182394E-08));
#568 = CARTESIAN_POINT('',(-13.69999999727,-11.21764762513,
    1.242097837E-08));
#569 = ORIENTED_EDGE('',*,*,#570,.T.);
#570 = EDGE_CURVE('',#564,#494,#571,.T.);
#571 = B_SPLINE_CURVE_WITH_KNOTS('',11,(#572,#573,#574,#575,#576,#577,
    #578,#579,#580,#581,#582,#583),.UNSPECIFIED.,.F.,.F.,(12,12),(0.,
    6.303048278758),.PIECEWISE_BEZIER_KNOTS.);
#572 = CARTESIAN_POINT('',(-13.69999999727,-11.21764762513,
    1.242085878E-08));
#573 = CARTESIAN_POINT('',(-13.70000023935,-10.9721930819,7.825421802927
    ));
#574 = CARTESIAN_POINT('',(-8.784199611,-10.72673853138,15.650665880491)
  );
#575 = CARTESIAN_POINT('',(1.057597170501,-10.48128399256,20.04513917233
    ));
#576 = CARTESIAN_POINT('',(13.080860107932,-10.23582944601,
    17.564400810659));
#577 = CARTESIAN_POINT('',(22.045732641594,-9.990374886394,7.24357763909
    ));
#578 = CARTESIAN_POINT('',(22.04573332412,-9.744920371775,
    -7.243578158205));
#579 = CARTESIAN_POINT('',(13.080859560548,-9.49946579057,-17.5643999245
    ));
#580 = CARTESIAN_POINT('',(1.057597488841,-9.254011271087,
    -20.04513983565));
#581 = CARTESIAN_POINT('',(-8.784199989954,-9.008556714478,
    -15.65066563798));
#582 = CARTESIAN_POINT('',(-13.70000000915,-8.763102170635,
    -7.825421780467));
#583 = CARTESIAN_POINT('',(-13.7000001141,-8.517647626199,
    1.021725504E-08));
#584 = ORIENTED_EDGE('',*,*,#500,.F.);
#585 = B_SPLINE_SURFACE_WITH_KNOTS('',1,11,(
    (#586,#587,#588,#589,#590,#591,#592,#593,#594,#595,#596,#597)
    ,(#598,#599,#600,#601,#602,#603,#604,#605,#606,#607,#608,#609
  )),.UNSPECIFIED.,.F.,.F.,.F.,(2,2),(12,12),(-1.624682579017,-0.),(0.,
    6.303048278758),.PIECEWISE_BEZIER_KNOTS.);
#586 = CARTESIAN_POINT('',(-12.09999999727,-10.93552445602,
    1.241812755E-08));
#587 = CARTESIAN_POINT('',(-12.10000023935,-10.6900699128,6.911503940135
    ));
#588 = CARTESIAN_POINT('',(-7.758307631082,-10.44461536173,
    13.822850865747));
#589 = CARTESIAN_POINT('',(0.934082073251,-10.19916082524,
    17.704101128998));
#590 = CARTESIAN_POINT('',(11.553168552608,-9.953706273879,
    15.513083706496));
#591 = CARTESIAN_POINT('',(19.471048462477,-9.708251720337,
    6.397612737908));
#592 = CARTESIAN_POINT('',(19.471049144956,-9.462797200634,
    -6.397613257005));
#593 = CARTESIAN_POINT('',(11.553168005272,-9.217342622264,
    -15.51308282033));
#594 = CARTESIAN_POINT('',(0.934082391585,-8.971888101866,
    -17.70410179231));
#595 = CARTESIAN_POINT('',(-7.758308010021,-8.726433545297,
    -13.82285062324));
#596 = CARTESIAN_POINT('',(-12.10000000915,-8.480979001528,
    -6.911503917684));
#597 = CARTESIAN_POINT('',(-12.1000001141,-8.235524457094,
    1.021171605E-08));
#598 = CARTESIAN_POINT('',(-13.69999999727,-11.21764762513,
    1.242085878E-08));
#599 = CARTESIAN_POINT('',(-13.70000023935,-10.9721930819,7.825421802927
    ));
#600 = CARTESIAN_POINT('',(-8.784199611,-10.72673853138,15.650665880491)
  );
#601 = CARTESIAN_POINT('',(1.057597170501,-10.48128399256,20.04513917233
    ));
#602 = CARTESIAN_POINT('',(13.080860107932,-10.23582944601,
    17.564400810659));
#603 = CARTESIAN_POINT('',(22.045732641594,-9.990374886394,7.24357763909
    ));
#604 = CARTESIAN_POINT('',(22.04573332412,-9.744920371775,
    -7.243578158205));
#605 = CARTESIAN_POINT('',(13.080859560548,-9.49946579057,-17.5643999245
    ));
#606 = CARTESIAN_POINT('',(1.057597488841,-9.254011271087,
    -20.04513983565));
#607 = CARTESIAN_POINT('',(-8.784199989954,-9.008556714478,
    -15.65066563798));
#608 = CARTESIAN_POINT('',(-13.70000000915,-8.763102170635,
    -7.825421780467));
#609 = CARTESIAN_POINT('',(-13.7000001141,-8.517647626199,
    1.021725504E-08));
#610 = ADVANCED_FACE('',(#611),#630,.F.);
#611 = FACE_BOUND('',#612,.T.);
#612 = EDGE_LOOP('',(#613,#614,#622,#629));
#613 = ORIENTED_EDGE('',*,*,#465,.T.);
#614 = ORIENTED_EDGE('',*,*,#615,.T.);
#615 = EDGE_CURVE('',#457,#616,#618,.T.);
#616 = VERTEX_POINT('',#617);
#617 = CARTESIAN_POINT('',(-53.,80.,0.));
#618 = LINE('',#619,#620);
#619 = CARTESIAN_POINT('',(-53.,228.,0.));
#620 = VECTOR('',#621,1.);
#621 = DIRECTION('',(0.,-1.,0.));
#622 = ORIENTED_EDGE('',*,*,#623,.F.);
#623 = EDGE_CURVE('',#616,#616,#624,.T.);
#624 = CIRCLE('',#625,53.);
#625 = AXIS2_PLACEMENT_3D('',#626,#627,#628);
#626 = CARTESIAN_POINT('',(0.,80.,0.));
#627 = DIRECTION('',(0.,1.,-0.));
#628 = DIRECTION('',(-1.,0.,0.));
#629 = ORIENTED_EDGE('',*,*,#615,.F.);
#630 = CYLINDRICAL_SURFACE('',#631,53.);
#631 = AXIS2_PLACEMENT_3D('',#632,#633,#634);
#632 = CARTESIAN_POINT('',(0.,228.,0.));
#633 = DIRECTION('',(-0.,-1.,-0.));
#634 = DIRECTION('',(-1.,0.,0.));
#635 = ADVANCED_FACE('',(#636),#662,.T.);
#636 = FACE_BOUND('',#637,.T.);
#637 = EDGE_LOOP('',(#638,#655,#660,#661));
#638 = ORIENTED_EDGE('',*,*,#639,.F.);
#639 = EDGE_CURVE('',#640,#487,#642,.T.);
#640 = VERTEX_POINT('',#641);
#641 = CARTESIAN_POINT('',(-13.69999999727,-12.01764762512,1.2420941E-08
    ));
#642 = B_SPLINE_CURVE_WITH_KNOTS('',11,(#643,#644,#645,#646,#647,#648,
    #649,#650,#651,#652,#653,#654),.UNSPECIFIED.,.F.,.F.,(12,12),(0.,
    6.303048278758),.PIECEWISE_BEZIER_KNOTS.);
#643 = CARTESIAN_POINT('',(-13.69999999727,-12.01764762512,
    1.242093846E-08));
#644 = CARTESIAN_POINT('',(-13.70000023935,-11.77219308189,
    7.825421802927));
#645 = CARTESIAN_POINT('',(-8.784199610999,-11.52673853171,
    15.650665880493));
#646 = CARTESIAN_POINT('',(1.057597170503,-11.28128399179,
    20.045139172325));
#647 = CARTESIAN_POINT('',(13.08086010792,-11.03582944701,
    17.564400810666));
#648 = CARTESIAN_POINT('',(22.045732641622,-10.79037488595,
    7.243577639086));
#649 = CARTESIAN_POINT('',(22.045733324083,-10.54492037132,
    -7.243578158205));
#650 = CARTESIAN_POINT('',(13.080859560579,-10.29946579156,
    -17.5643999245));
#651 = CARTESIAN_POINT('',(1.057597488826,-10.05401127031,
    -20.04513983565));
#652 = CARTESIAN_POINT('',(-8.784199989951,-9.808556714811,
    -15.65066563798));
#653 = CARTESIAN_POINT('',(-13.70000000915,-9.563102170623,
    -7.825421780467));
#654 = CARTESIAN_POINT('',(-13.7000001141,-9.317647626187,
    1.021734183E-08));
#655 = ORIENTED_EDGE('',*,*,#656,.T.);
#656 = EDGE_CURVE('',#640,#514,#657,.T.);
#657 = B_SPLINE_CURVE_WITH_KNOTS('',1,(#658,#659),.UNSPECIFIED.,.F.,.F.,
  (2,2),(-1.702684435961,-0.),.PIECEWISE_BEZIER_KNOTS.);
#658 = CARTESIAN_POINT('',(-13.69999999727,-12.01764762512,
    1.242105879E-08));
#659 = CARTESIAN_POINT('',(-12.09999999727,-12.59999999997,
    1.241841136E-08));
#660 = ORIENTED_EDGE('',*,*,#513,.T.);
#661 = ORIENTED_EDGE('',*,*,#486,.F.);
#662 = B_SPLINE_SURFACE_WITH_KNOTS('',1,11,(
    (#663,#664,#665,#666,#667,#668,#669,#670,#671,#672,#673,#674)
    ,(#675,#676,#677,#678,#679,#680,#681,#682,#683,#684,#685,#686
  )),.UNSPECIFIED.,.F.,.F.,.F.,(2,2),(12,12),(-1.702684435961,-0.),(0.,
    6.303048278758),.PIECEWISE_BEZIER_KNOTS.);
#663 = CARTESIAN_POINT('',(-13.69999999727,-12.01764762512,
    1.242093846E-08));
#664 = CARTESIAN_POINT('',(-13.70000023935,-11.77219308189,
    7.825421802927));
#665 = CARTESIAN_POINT('',(-8.784199610999,-11.52673853171,
    15.650665880493));
#666 = CARTESIAN_POINT('',(1.057597170503,-11.28128399179,
    20.045139172325));
#667 = CARTESIAN_POINT('',(13.08086010792,-11.03582944701,
    17.564400810666));
#668 = CARTESIAN_POINT('',(22.045732641622,-10.79037488595,
    7.243577639086));
#669 = CARTESIAN_POINT('',(22.045733324083,-10.54492037132,
    -7.243578158205));
#670 = CARTESIAN_POINT('',(13.080859560579,-10.29946579156,
    -17.5643999245));
#671 = CARTESIAN_POINT('',(1.057597488826,-10.05401127031,
    -20.04513983565));
#672 = CARTESIAN_POINT('',(-8.784199989951,-9.808556714811,
    -15.65066563798));
#673 = CARTESIAN_POINT('',(-13.70000000915,-9.563102170623,
    -7.825421780467));
#674 = CARTESIAN_POINT('',(-13.7000001141,-9.317647626187,
    1.021734183E-08));
#675 = CARTESIAN_POINT('',(-12.09999999727,-12.59999999997,
    1.241830397E-08));
#676 = CARTESIAN_POINT('',(-12.10000023935,-12.35454545675,
    6.911503940136));
#677 = CARTESIAN_POINT('',(-7.758307631075,-12.10909090568,
    13.822850865748));
#678 = CARTESIAN_POINT('',(0.934082073238,-11.86363636919,
    17.704101128995));
#679 = CARTESIAN_POINT('',(11.553168552625,-11.61818181782,
    15.513083706498));
#680 = CARTESIAN_POINT('',(19.471048462467,-11.37272726428,
    6.397612737917));
#681 = CARTESIAN_POINT('',(19.471049144958,-11.12727274458,
    -6.397613257027));
#682 = CARTESIAN_POINT('',(11.553168005277,-10.8818181662,
    -15.51308282031));
#683 = CARTESIAN_POINT('',(0.934082391581,-10.63636364581,
    -17.70410179233));
#684 = CARTESIAN_POINT('',(-7.758308010021,-10.39090908924,
    -13.82285062324));
#685 = CARTESIAN_POINT('',(-12.10000000915,-10.14545454547,
    -6.911503917685));
#686 = CARTESIAN_POINT('',(-12.1000001141,-9.900000001042,
    1.021188537E-08));
#687 = ADVANCED_FACE('',(#688),#698,.T.);
#688 = FACE_BOUND('',#689,.T.);
#689 = EDGE_LOOP('',(#690,#691,#696,#697));
#690 = ORIENTED_EDGE('',*,*,#570,.F.);
#691 = ORIENTED_EDGE('',*,*,#692,.T.);
#692 = EDGE_CURVE('',#564,#640,#693,.T.);
#693 = B_SPLINE_CURVE_WITH_KNOTS('',1,(#694,#695),.UNSPECIFIED.,.F.,.F.,
  (2,2),(-0.8,-0.),.PIECEWISE_BEZIER_KNOTS.);
#694 = CARTESIAN_POINT('',(-13.69999999727,-11.21764762513,
    1.242099073E-08));
#695 = CARTESIAN_POINT('',(-13.69999999727,-12.01764762512,
    1.242105879E-08));
#696 = ORIENTED_EDGE('',*,*,#639,.T.);
#697 = ORIENTED_EDGE('',*,*,#493,.F.);
#698 = B_SPLINE_SURFACE_WITH_KNOTS('',1,11,(
    (#699,#700,#701,#702,#703,#704,#705,#706,#707,#708,#709,#710)
    ,(#711,#712,#713,#714,#715,#716,#717,#718,#719,#720,#721,#722
  )),.UNSPECIFIED.,.F.,.F.,.F.,(2,2),(12,12),(-0.8,-0.),(0.,
    6.303048278758),.PIECEWISE_BEZIER_KNOTS.);
#699 = CARTESIAN_POINT('',(-13.69999999727,-11.21764762513,
    1.242086649E-08));
#700 = CARTESIAN_POINT('',(-13.70000023935,-10.9721930819,7.825421802927
    ));
#701 = CARTESIAN_POINT('',(-8.784199611001,-10.72673853138,
    15.650665880492));
#702 = CARTESIAN_POINT('',(1.057597170504,-10.48128399256,
    20.045139172328));
#703 = CARTESIAN_POINT('',(13.080860107926,-10.23582944601,
    17.564400810663));
#704 = CARTESIAN_POINT('',(22.045732641602,-9.990374886394,
    7.243577639084));
#705 = CARTESIAN_POINT('',(22.045733324112,-9.744920371775,
    -7.243578158199));
#706 = CARTESIAN_POINT('',(13.080859560553,-9.49946579057,-17.5643999245
    ));
#707 = CARTESIAN_POINT('',(1.057597488839,-9.254011271087,
    -20.04513983564));
#708 = CARTESIAN_POINT('',(-8.784199989953,-9.008556714478,
    -15.65066563798));
#709 = CARTESIAN_POINT('',(-13.70000000915,-8.763102170635,
    -7.825421780467));
#710 = CARTESIAN_POINT('',(-13.7000001141,-8.517647626199,
    1.021725565E-08));
#711 = CARTESIAN_POINT('',(-13.69999999727,-12.01764762512,
    1.242093846E-08));
#712 = CARTESIAN_POINT('',(-13.70000023935,-11.77219308189,
    7.825421802927));
#713 = CARTESIAN_POINT('',(-8.784199610999,-11.52673853171,
    15.650665880493));
#714 = CARTESIAN_POINT('',(1.057597170503,-11.28128399179,
    20.045139172325));
#715 = CARTESIAN_POINT('',(13.08086010792,-11.03582944701,
    17.564400810666));
#716 = CARTESIAN_POINT('',(22.045732641622,-10.79037488595,
    7.243577639086));
#717 = CARTESIAN_POINT('',(22.045733324083,-10.54492037132,
    -7.243578158205));
#718 = CARTESIAN_POINT('',(13.080859560579,-10.29946579156,
    -17.5643999245));
#719 = CARTESIAN_POINT('',(1.057597488826,-10.05401127031,
    -20.04513983565));
#720 = CARTESIAN_POINT('',(-8.784199989951,-9.808556714811,
    -15.65066563798));
#721 = CARTESIAN_POINT('',(-13.70000000915,-9.563102170623,
    -7.825421780467));
#722 = CARTESIAN_POINT('',(-13.7000001141,-9.317647626187,
    1.021734183E-08));
#723 = ADVANCED_FACE('',(#724),#757,.T.);
#724 = FACE_BOUND('',#725,.F.);
#725 = EDGE_LOOP('',(#726,#743,#744,#750));
#726 = ORIENTED_EDGE('',*,*,#727,.T.);
#727 = EDGE_CURVE('',#728,#514,#730,.T.);
#728 = VERTEX_POINT('',#729);
#729 = CARTESIAN_POINT('',(-12.1,-15.30000000001,-1.E-15));
#730 = B_SPLINE_CURVE_WITH_KNOTS('',11,(#731,#732,#733,#734,#735,#736,
    #737,#738,#739,#740,#741,#742),.UNSPECIFIED.,.F.,.F.,(12,12),(0.,
    6.303048278758),.PIECEWISE_BEZIER_KNOTS.);
#731 = CARTESIAN_POINT('',(-12.1,-15.30000000001,-1.16E-15));
#732 = CARTESIAN_POINT('',(-12.10000025498,-15.05454545684,
    6.911503930831));
#733 = CARTESIAN_POINT('',(-7.758307633322,-14.80909090486,
    13.822850849814));
#734 = CARTESIAN_POINT('',(0.93408210864,-14.5636363737,17.704101108652)
  );
#735 = CARTESIAN_POINT('',(11.553168259244,-14.31818180542,
    15.513084021737));
#736 = CARTESIAN_POINT('',(19.471049037721,-14.07272728566,
    6.397611886078));
#737 = CARTESIAN_POINT('',(19.471048454254,-13.82727272148,
    -6.397611846293));
#738 = CARTESIAN_POINT('',(11.553168658632,-13.58181818133,
    -15.51308414254));
#739 = CARTESIAN_POINT('',(0.934081871846,-13.33636364185,
    -17.70410105483));
#740 = CARTESIAN_POINT('',(-7.758307557612,-13.09090908711,
    -13.82285084983));
#741 = CARTESIAN_POINT('',(-12.10000028495,-12.84545454794,
    -6.91150391819));
#742 = CARTESIAN_POINT('',(-12.09999999727,-12.59999999997,
    1.241841136E-08));
#743 = ORIENTED_EDGE('',*,*,#548,.T.);
#744 = ORIENTED_EDGE('',*,*,#745,.T.);
#745 = EDGE_CURVE('',#532,#728,#746,.T.);
#746 = LINE('',#747,#748);
#747 = CARTESIAN_POINT('',(-12.1,-7.984289299237,0.));
#748 = VECTOR('',#749,1.);
#749 = DIRECTION('',(0.,-1.,0.));
#750 = ORIENTED_EDGE('',*,*,#751,.F.);
#751 = EDGE_CURVE('',#728,#728,#752,.T.);
#752 = CIRCLE('',#753,12.1);
#753 = AXIS2_PLACEMENT_3D('',#754,#755,#756);
#754 = CARTESIAN_POINT('',(0.,-15.3,0.));
#755 = DIRECTION('',(0.,1.,-0.));
#756 = DIRECTION('',(-1.,0.,0.));
#757 = CYLINDRICAL_SURFACE('',#758,12.1);
#758 = AXIS2_PLACEMENT_3D('',#759,#760,#761);
#759 = CARTESIAN_POINT('',(0.,-7.984289299237,0.));
#760 = DIRECTION('',(-0.,-1.,-0.));
#761 = DIRECTION('',(-1.,0.,0.));
#762 = ADVANCED_FACE('',(#763),#789,.T.);
#763 = FACE_BOUND('',#764,.T.);
#764 = EDGE_LOOP('',(#765,#766,#773,#788));
#765 = ORIENTED_EDGE('',*,*,#531,.F.);
#766 = ORIENTED_EDGE('',*,*,#767,.T.);
#767 = EDGE_CURVE('',#532,#768,#770,.T.);
#768 = VERTEX_POINT('',#769);
#769 = CARTESIAN_POINT('',(-13.7,-13.91764762517,5.E-15));
#770 = B_SPLINE_CURVE_WITH_KNOTS('',1,(#771,#772),.UNSPECIFIED.,.F.,.F.,
  (2,2),(-1.624682579017,-0.),.PIECEWISE_BEZIER_KNOTS.);
#771 = CARTESIAN_POINT('',(-12.1,-13.63552445604,-2.59E-15));
#772 = CARTESIAN_POINT('',(-13.7,-13.91764762517,-1.454E-14));
#773 = ORIENTED_EDGE('',*,*,#774,.T.);
#774 = EDGE_CURVE('',#768,#564,#775,.T.);
#775 = B_SPLINE_CURVE_WITH_KNOTS('',11,(#776,#777,#778,#779,#780,#781,
    #782,#783,#784,#785,#786,#787),.UNSPECIFIED.,.F.,.F.,(12,12),(0.,
    6.303048278758),.PIECEWISE_BEZIER_KNOTS.);
#776 = CARTESIAN_POINT('',(-13.7,-13.91764762517,-1.454E-14));
#777 = CARTESIAN_POINT('',(-13.70000025498,-13.67219308199,
    7.825421793619));
#778 = CARTESIAN_POINT('',(-8.784199613252,-13.42673853021,
    15.650665864557));
#779 = CARTESIAN_POINT('',(1.057597205905,-13.1812839982,20.045139151986
    ));
#780 = CARTESIAN_POINT('',(13.080859814539,-12.9358294319,
    17.564401125889));
#781 = CARTESIAN_POINT('',(22.045733216853,-12.69037490882,
    7.243576787281));
#782 = CARTESIAN_POINT('',(22.045732633413,-12.44492034887,
    -7.243576747496));
#783 = CARTESIAN_POINT('',(13.080860213907,-12.19946580504,
    -17.5644012467));
#784 = CARTESIAN_POINT('',(1.057596969112,-11.95401126744,
    -20.04513909816));
#785 = CARTESIAN_POINT('',(-8.784199537545,-11.70855671233,
    -15.65066586457));
#786 = CARTESIAN_POINT('',(-13.70000028494,-11.46310217309,
    -7.825421780974));
#787 = CARTESIAN_POINT('',(-13.69999999727,-11.21764762513,
    1.242097837E-08));
#788 = ORIENTED_EDGE('',*,*,#563,.F.);
#789 = B_SPLINE_SURFACE_WITH_KNOTS('',1,11,(
    (#790,#791,#792,#793,#794,#795,#796,#797,#798,#799,#800,#801)
    ,(#802,#803,#804,#805,#806,#807,#808,#809,#810,#811,#812,#813
  )),.UNSPECIFIED.,.F.,.F.,.F.,(2,2),(12,12),(-1.624682579017,-0.),(0.,
    6.303048278758),.PIECEWISE_BEZIER_KNOTS.);
#790 = CARTESIAN_POINT('',(-12.1,-13.63552445604,-2.59E-15));
#791 = CARTESIAN_POINT('',(-12.10000025498,-13.39006991286,
    6.911503930831));
#792 = CARTESIAN_POINT('',(-7.758307633328,-13.1446153613,
    13.822850849812));
#793 = CARTESIAN_POINT('',(0.934082108648,-12.89916082857,
    17.704101108652));
#794 = CARTESIAN_POINT('',(11.553168259242,-12.65370626361,
    15.513084021741));
#795 = CARTESIAN_POINT('',(19.471049037703,-12.40825173914,
    6.397611886061));
#796 = CARTESIAN_POINT('',(19.471048454286,-12.16279717965,
    -6.397611846268));
#797 = CARTESIAN_POINT('',(11.553168658598,-11.91734263621,
    -15.51308414256));
#798 = CARTESIAN_POINT('',(0.934081871867,-11.67188809831,
    -17.70410105482));
#799 = CARTESIAN_POINT('',(-7.75830755762,-11.42643354309,
    -13.82285084983));
#800 = CARTESIAN_POINT('',(-12.10000028494,-11.18097900399,
    -6.911503918189));
#801 = CARTESIAN_POINT('',(-12.09999999727,-10.93552445602,
    1.24182394E-08));
#802 = CARTESIAN_POINT('',(-13.7,-13.91764762517,-1.454E-14));
#803 = CARTESIAN_POINT('',(-13.70000025498,-13.67219308199,
    7.825421793619));
#804 = CARTESIAN_POINT('',(-8.784199613252,-13.42673853021,
    15.650665864557));
#805 = CARTESIAN_POINT('',(1.057597205905,-13.1812839982,20.045139151986
    ));
#806 = CARTESIAN_POINT('',(13.080859814539,-12.9358294319,
    17.564401125889));
#807 = CARTESIAN_POINT('',(22.045733216853,-12.69037490882,
    7.243576787281));
#808 = CARTESIAN_POINT('',(22.045732633413,-12.44492034887,
    -7.243576747496));
#809 = CARTESIAN_POINT('',(13.080860213907,-12.19946580504,
    -17.5644012467));
#810 = CARTESIAN_POINT('',(1.057596969112,-11.95401126744,
    -20.04513909816));
#811 = CARTESIAN_POINT('',(-8.784199537545,-11.70855671233,
    -15.65066586457));
#812 = CARTESIAN_POINT('',(-13.70000028494,-11.46310217309,
    -7.825421780974));
#813 = CARTESIAN_POINT('',(-13.69999999727,-11.21764762513,
    1.242097837E-08));
#814 = ADVANCED_FACE('',(#815),#835,.T.);
#815 = FACE_BOUND('',#816,.T.);
#816 = EDGE_LOOP('',(#817,#826,#827,#828));
#817 = ORIENTED_EDGE('',*,*,#818,.F.);
#818 = EDGE_CURVE('',#616,#819,#821,.T.);
#819 = VERTEX_POINT('',#820);
#820 = CARTESIAN_POINT('',(-10.86,0.,0.));
#821 = B_SPLINE_CURVE_WITH_KNOTS('',3,(#822,#823,#824,#825),
  .UNSPECIFIED.,.F.,.F.,(4,4),(0.,1.),.PIECEWISE_BEZIER_KNOTS.);
#822 = CARTESIAN_POINT('',(-53.,80.,0.));
#823 = CARTESIAN_POINT('',(-47.108318,14.812605,0.));
#824 = CARTESIAN_POINT('',(-12.127023,22.471621,0.));
#825 = CARTESIAN_POINT('',(-10.86,0.,0.));
#826 = ORIENTED_EDGE('',*,*,#623,.T.);
#827 = ORIENTED_EDGE('',*,*,#818,.T.);
#828 = ORIENTED_EDGE('',*,*,#829,.F.);
#829 = EDGE_CURVE('',#819,#819,#830,.T.);
#830 = CIRCLE('',#831,10.86);
#831 = AXIS2_PLACEMENT_3D('',#832,#833,#834);
#832 = CARTESIAN_POINT('',(0.,0.,0.));
#833 = DIRECTION('',(0.,1.,-0.));
#834 = DIRECTION('',(-1.,0.,0.));
#835 = SURFACE_OF_REVOLUTION('',#836,#841);
#836 = B_SPLINE_CURVE_WITH_KNOTS('',3,(#837,#838,#839,#840),
  .UNSPECIFIED.,.F.,.F.,(4,4),(0.,1.),.PIECEWISE_BEZIER_KNOTS.);
#837 = CARTESIAN_POINT('',(-53.,80.,0.));
#838 = CARTESIAN_POINT('',(-47.108318,14.812605,0.));
#839 = CARTESIAN_POINT('',(-12.127023,22.471621,0.));
#840 = CARTESIAN_POINT('',(-10.86,0.,0.));
#841 = AXIS1_PLACEMENT('',#842,#843);
#842 = CARTESIAN_POINT('',(0.,0.,0.));
#843 = DIRECTION('',(0.,1.,0.));
#844 = ADVANCED_FACE('',(#845),#871,.T.);
#845 = FACE_BOUND('',#846,.T.);
#846 = EDGE_LOOP('',(#847,#864,#869,#870));
#847 = ORIENTED_EDGE('',*,*,#848,.F.);
#848 = EDGE_CURVE('',#849,#640,#851,.T.);
#849 = VERTEX_POINT('',#850);
#850 = CARTESIAN_POINT('',(-13.7,-14.71764762516,9.E-15));
#851 = B_SPLINE_CURVE_WITH_KNOTS('',11,(#852,#853,#854,#855,#856,#857,
    #858,#859,#860,#861,#862,#863),.UNSPECIFIED.,.F.,.F.,(12,12),(0.,
    6.303048278758),.PIECEWISE_BEZIER_KNOTS.);
#852 = CARTESIAN_POINT('',(-13.7,-14.71764762516,9.04E-15));
#853 = CARTESIAN_POINT('',(-13.70000025498,-14.47219308198,
    7.825421793619));
#854 = CARTESIAN_POINT('',(-8.784199613246,-14.2267385302,
    15.650665864559));
#855 = CARTESIAN_POINT('',(1.057597205885,-13.98128399819,
    20.045139151985));
#856 = CARTESIAN_POINT('',(13.080859814579,-13.73582943189,
    17.564401125888));
#857 = CARTESIAN_POINT('',(22.045733216803,-13.49037490881,
    7.243576787283));
#858 = CARTESIAN_POINT('',(22.045732633455,-13.24492034885,
    -7.243576747495));
#859 = CARTESIAN_POINT('',(13.080860213888,-12.99946580503,
    -17.56440124671));
#860 = CARTESIAN_POINT('',(1.057596969116,-12.75401126743,
    -20.04513909816));
#861 = CARTESIAN_POINT('',(-8.784199537544,-12.50855671232,
    -15.65066586457));
#862 = CARTESIAN_POINT('',(-13.70000028495,-12.26310217308,
    -7.825421780974));
#863 = CARTESIAN_POINT('',(-13.69999999727,-12.01764762512,
    1.242105879E-08));
#864 = ORIENTED_EDGE('',*,*,#865,.T.);
#865 = EDGE_CURVE('',#849,#728,#866,.T.);
#866 = B_SPLINE_CURVE_WITH_KNOTS('',1,(#867,#868),.UNSPECIFIED.,.F.,.F.,
  (2,2),(-1.702684435961,-0.),.PIECEWISE_BEZIER_KNOTS.);
#867 = CARTESIAN_POINT('',(-13.7,-14.71764762516,9.04E-15));
#868 = CARTESIAN_POINT('',(-12.1,-15.30000000001,-1.16E-15));
#869 = ORIENTED_EDGE('',*,*,#727,.T.);
#870 = ORIENTED_EDGE('',*,*,#656,.F.);
#871 = B_SPLINE_SURFACE_WITH_KNOTS('',1,11,(
    (#872,#873,#874,#875,#876,#877,#878,#879,#880,#881,#882,#883)
    ,(#884,#885,#886,#887,#888,#889,#890,#891,#892,#893,#894,#895
  )),.UNSPECIFIED.,.F.,.F.,.F.,(2,2),(12,12),(-1.702684435961,-0.),(0.,
    6.303048278758),.PIECEWISE_BEZIER_KNOTS.);
#872 = CARTESIAN_POINT('',(-13.7,-14.71764762516,9.04E-15));
#873 = CARTESIAN_POINT('',(-13.70000025498,-14.47219308198,
    7.825421793619));
#874 = CARTESIAN_POINT('',(-8.784199613246,-14.2267385302,
    15.650665864559));
#875 = CARTESIAN_POINT('',(1.057597205885,-13.98128399819,
    20.045139151985));
#876 = CARTESIAN_POINT('',(13.080859814579,-13.73582943189,
    17.564401125888));
#877 = CARTESIAN_POINT('',(22.045733216803,-13.49037490881,
    7.243576787283));
#878 = CARTESIAN_POINT('',(22.045732633455,-13.24492034885,
    -7.243576747495));
#879 = CARTESIAN_POINT('',(13.080860213888,-12.99946580503,
    -17.56440124671));
#880 = CARTESIAN_POINT('',(1.057596969116,-12.75401126743,
    -20.04513909816));
#881 = CARTESIAN_POINT('',(-8.784199537544,-12.50855671232,
    -15.65066586457));
#882 = CARTESIAN_POINT('',(-13.70000028495,-12.26310217308,
    -7.825421780974));
#883 = CARTESIAN_POINT('',(-13.69999999727,-12.01764762512,
    1.242105879E-08));
#884 = CARTESIAN_POINT('',(-12.1,-15.30000000001,-1.16E-15));
#885 = CARTESIAN_POINT('',(-12.10000025498,-15.05454545684,
    6.911503930831));
#886 = CARTESIAN_POINT('',(-7.758307633322,-14.80909090486,
    13.822850849814));
#887 = CARTESIAN_POINT('',(0.93408210864,-14.5636363737,17.704101108652)
  );
#888 = CARTESIAN_POINT('',(11.553168259244,-14.31818180542,
    15.513084021737));
#889 = CARTESIAN_POINT('',(19.471049037721,-14.07272728566,
    6.397611886078));
#890 = CARTESIAN_POINT('',(19.471048454254,-13.82727272148,
    -6.397611846293));
#891 = CARTESIAN_POINT('',(11.553168658632,-13.58181818133,
    -15.51308414254));
#892 = CARTESIAN_POINT('',(0.934081871846,-13.33636364185,
    -17.70410105483));
#893 = CARTESIAN_POINT('',(-7.758307557612,-13.09090908711,
    -13.82285084983));
#894 = CARTESIAN_POINT('',(-12.10000028495,-12.84545454794,
    -6.91150391819));
#895 = CARTESIAN_POINT('',(-12.09999999727,-12.59999999997,
    1.241841136E-08));
#896 = ADVANCED_FACE('',(#897),#907,.T.);
#897 = FACE_BOUND('',#898,.T.);
#898 = EDGE_LOOP('',(#899,#900,#905,#906));
#899 = ORIENTED_EDGE('',*,*,#774,.F.);
#900 = ORIENTED_EDGE('',*,*,#901,.T.);
#901 = EDGE_CURVE('',#768,#849,#902,.T.);
#902 = B_SPLINE_CURVE_WITH_KNOTS('',1,(#903,#904),.UNSPECIFIED.,.F.,.F.,
  (2,2),(-0.8,-0.),.PIECEWISE_BEZIER_KNOTS.);
#903 = CARTESIAN_POINT('',(-13.7,-13.91764762517,4.93E-15));
#904 = CARTESIAN_POINT('',(-13.7,-14.71764762516,9.04E-15));
#905 = ORIENTED_EDGE('',*,*,#848,.T.);
#906 = ORIENTED_EDGE('',*,*,#692,.F.);
#907 = B_SPLINE_SURFACE_WITH_KNOTS('',1,11,(
    (#908,#909,#910,#911,#912,#913,#914,#915,#916,#917,#918,#919)
    ,(#920,#921,#922,#923,#924,#925,#926,#927,#928,#929,#930,#931
  )),.UNSPECIFIED.,.F.,.F.,.F.,(2,2),(12,12),(-0.8,-0.),(0.,
    6.303048278758),.PIECEWISE_BEZIER_KNOTS.);
#908 = CARTESIAN_POINT('',(-13.7,-13.91764762517,4.93E-15));
#909 = CARTESIAN_POINT('',(-13.70000025498,-13.67219308199,
    7.825421793619));
#910 = CARTESIAN_POINT('',(-8.784199613252,-13.42673853021,
    15.650665864558));
#911 = CARTESIAN_POINT('',(1.057597205904,-13.1812839982,20.045139151984
    ));
#912 = CARTESIAN_POINT('',(13.080859814541,-12.9358294319,
    17.564401125892));
#913 = CARTESIAN_POINT('',(22.04573321685,-12.69037490882,7.243576787277
    ));
#914 = CARTESIAN_POINT('',(22.045732633416,-12.44492034887,
    -7.243576747494));
#915 = CARTESIAN_POINT('',(13.080860213905,-12.19946580504,
    -17.5644012467));
#916 = CARTESIAN_POINT('',(1.057596969113,-11.95401126744,
    -20.04513909816));
#917 = CARTESIAN_POINT('',(-8.784199537545,-11.70855671233,
    -15.65066586457));
#918 = CARTESIAN_POINT('',(-13.70000028494,-11.46310217309,
    -7.825421780974));
#919 = CARTESIAN_POINT('',(-13.69999999727,-11.21764762513,
    1.242099073E-08));
#920 = CARTESIAN_POINT('',(-13.7,-14.71764762516,9.04E-15));
#921 = CARTESIAN_POINT('',(-13.70000025498,-14.47219308198,
    7.825421793619));
#922 = CARTESIAN_POINT('',(-8.784199613246,-14.2267385302,
    15.650665864559));
#923 = CARTESIAN_POINT('',(1.057597205885,-13.98128399819,
    20.045139151985));
#924 = CARTESIAN_POINT('',(13.080859814579,-13.73582943189,
    17.564401125888));
#925 = CARTESIAN_POINT('',(22.045733216803,-13.49037490881,
    7.243576787283));
#926 = CARTESIAN_POINT('',(22.045732633455,-13.24492034885,
    -7.243576747495));
#927 = CARTESIAN_POINT('',(13.080860213888,-12.99946580503,
    -17.56440124671));
#928 = CARTESIAN_POINT('',(1.057596969116,-12.75401126743,
    -20.04513909816));
#929 = CARTESIAN_POINT('',(-8.784199537544,-12.50855671232,
    -15.65066586457));
#930 = CARTESIAN_POINT('',(-13.70000028495,-12.26310217308,
    -7.825421780974));
#931 = CARTESIAN_POINT('',(-13.69999999727,-12.01764762512,
    1.242105879E-08));
#932 = ADVANCED_FACE('',(#933,#936),#947,.T.);
#933 = FACE_BOUND('',#934,.F.);
#934 = EDGE_LOOP('',(#935));
#935 = ORIENTED_EDGE('',*,*,#751,.T.);
#936 = FACE_BOUND('',#937,.F.);
#937 = EDGE_LOOP('',(#938));
#938 = ORIENTED_EDGE('',*,*,#939,.F.);
#939 = EDGE_CURVE('',#940,#940,#942,.T.);
#940 = VERTEX_POINT('',#941);
#941 = CARTESIAN_POINT('',(-12.535,-15.3,0.));
#942 = CIRCLE('',#943,12.535);
#943 = AXIS2_PLACEMENT_3D('',#944,#945,#946);
#944 = CARTESIAN_POINT('',(0.,-15.3,0.));
#945 = DIRECTION('',(0.,1.,-0.));
#946 = DIRECTION('',(-1.,0.,0.));
#947 = PLANE('',#948);
#948 = AXIS2_PLACEMENT_3D('',#949,#950,#951);
#949 = CARTESIAN_POINT('',(0.,-15.3,0.));
#950 = DIRECTION('',(0.,1.,0.));
#951 = DIRECTION('',(-1.,-0.,-0.));
#952 = ADVANCED_FACE('',(#953),#959,.F.);
#953 = FACE_BOUND('',#954,.T.);
#954 = EDGE_LOOP('',(#955,#956,#957,#958));
#955 = ORIENTED_EDGE('',*,*,#745,.T.);
#956 = ORIENTED_EDGE('',*,*,#865,.F.);
#957 = ORIENTED_EDGE('',*,*,#901,.F.);
#958 = ORIENTED_EDGE('',*,*,#767,.F.);
#959 = PLANE('',#960);
#960 = AXIS2_PLACEMENT_3D('',#961,#962,#963);
#961 = CARTESIAN_POINT('',(-12.7805940548,-14.41220539083,-1.66E-15));
#962 = DIRECTION('',(0.,0.,1.));
#963 = DIRECTION('',(1.,0.,-0.));
#964 = ADVANCED_FACE('',(#965),#984,.F.);
#965 = FACE_BOUND('',#966,.F.);
#966 = EDGE_LOOP('',(#967,#975,#982,#983));
#967 = ORIENTED_EDGE('',*,*,#968,.F.);
#968 = EDGE_CURVE('',#969,#819,#971,.T.);
#969 = VERTEX_POINT('',#970);
#970 = CARTESIAN_POINT('',(-10.86,-17.,0.));
#971 = LINE('',#972,#973);
#972 = CARTESIAN_POINT('',(-10.86,-17.,0.));
#973 = VECTOR('',#974,1.);
#974 = DIRECTION('',(0.,1.,0.));
#975 = ORIENTED_EDGE('',*,*,#976,.T.);
#976 = EDGE_CURVE('',#969,#969,#977,.T.);
#977 = CIRCLE('',#978,10.86);
#978 = AXIS2_PLACEMENT_3D('',#979,#980,#981);
#979 = CARTESIAN_POINT('',(0.,-17.,0.));
#980 = DIRECTION('',(0.,1.,-0.));
#981 = DIRECTION('',(-1.,0.,0.));
#982 = ORIENTED_EDGE('',*,*,#968,.T.);
#983 = ORIENTED_EDGE('',*,*,#829,.F.);
#984 = CYLINDRICAL_SURFACE('',#985,10.86);
#985 = AXIS2_PLACEMENT_3D('',#986,#987,#988);
#986 = CARTESIAN_POINT('',(0.,-17.,0.));
#987 = DIRECTION('',(0.,1.,0.));
#988 = DIRECTION('',(-1.,0.,0.));
#989 = ADVANCED_FACE('',(#990),#1009,.T.);
#990 = FACE_BOUND('',#991,.F.);
#991 = EDGE_LOOP('',(#992,#993,#1001,#1008));
#992 = ORIENTED_EDGE('',*,*,#939,.T.);
#993 = ORIENTED_EDGE('',*,*,#994,.T.);
#994 = EDGE_CURVE('',#940,#995,#997,.T.);
#995 = VERTEX_POINT('',#996);
#996 = CARTESIAN_POINT('',(-12.535,-17.,0.));
#997 = LINE('',#998,#999);
#998 = CARTESIAN_POINT('',(-12.535,-15.3,0.));
#999 = VECTOR('',#1000,1.);
#1000 = DIRECTION('',(0.,-1.,0.));
#1001 = ORIENTED_EDGE('',*,*,#1002,.F.);
#1002 = EDGE_CURVE('',#995,#995,#1003,.T.);
#1003 = CIRCLE('',#1004,12.535);
#1004 = AXIS2_PLACEMENT_3D('',#1005,#1006,#1007);
#1005 = CARTESIAN_POINT('',(0.,-17.,0.));
#1006 = DIRECTION('',(0.,1.,-0.));
#1007 = DIRECTION('',(-1.,0.,0.));
#1008 = ORIENTED_EDGE('',*,*,#994,.F.);
#1009 = CYLINDRICAL_SURFACE('',#1010,12.535);
#1010 = AXIS2_PLACEMENT_3D('',#1011,#1012,#1013);
#1011 = CARTESIAN_POINT('',(0.,-15.3,0.));
#1012 = DIRECTION('',(-0.,-1.,-0.));
#1013 = DIRECTION('',(-1.,0.,0.));
#1014 = ADVANCED_FACE('',(#1015,#1018),#1021,.F.);
#1015 = FACE_BOUND('',#1016,.F.);
#1016 = EDGE_LOOP('',(#1017));
#1017 = ORIENTED_EDGE('',*,*,#1002,.T.);
#1018 = FACE_BOUND('',#1019,.F.);
#1019 = EDGE_LOOP('',(#1020));
#1020 = ORIENTED_EDGE('',*,*,#976,.F.);
#1021 = PLANE('',#1022);
#1022 = AXIS2_PLACEMENT_3D('',#1023,#1024,#1025);
#1023 = CARTESIAN_POINT('',(0.,-17.,0.));
#1024 = DIRECTION('',(0.,1.,0.));
#1025 = DIRECTION('',(-1.,0.,0.));
#1026 = ( GEOMETRIC_REPRESENTATION_CONTEXT(3) 
GLOBAL_UNCERTAINTY_ASSIGNED_CONTEXT((#1030)) 
GLOBAL_UNIT_ASSIGNED_CONTEXT((#1027,#1028,#1029)) REPRESENTATION_CONTEXT
('Context #1','3D Context with UNIT and UNCERTAINTY') );
#1027 = ( LENGTH_UNIT() NAMED_UNIT(*) SI_UNIT(.MILLI.,.METRE.) );
#1028 = ( NAMED_UNIT(*) PLANE_ANGLE_UNIT() SI_UNIT($,.RADIAN.) );
#1029 = ( NAMED_UNIT(*) SI_UNIT($,.STERADIAN.) SOLID_ANGLE_UNIT() );
#1030 = UNCERTAINTY_MEASURE_WITH_UNIT(LENGTH_MEASURE(1.E-05),#1027,
  'distance_accuracy_value','confusion accuracy');
#1031 = PRODUCT_RELATED_PRODUCT_CATEGORY('part',$,(#7));
#1032 = MECHANICAL_DESIGN_GEOMETRIC_PRESENTATION_REPRESENTATION('',(
    #1033),#1026);
#1033 = STYLED_ITEM('color',(#1034),#15);
#1034 = PRESENTATION_STYLE_ASSIGNMENT((#1035,#1043));
#1035 = SURFACE_STYLE_USAGE(.BOTH.,#1036);
#1036 = SURFACE_SIDE_STYLE('',(#1037,#1041));
#1037 = SURFACE_STYLE_FILL_AREA(#1038);
#1038 = FILL_AREA_STYLE('',(#1039));
#1039 = FILL_AREA_STYLE_COLOUR('',#1040);
#1040 = COLOUR_RGB('',0.678431390124,0.709803936702,0.741176476869);
#1041 = SURFACE_STYLE_RENDERING_WITH_PROPERTIES(.NORMAL_SHADING.,#1040,(
    #1042));
#1042 = SURFACE_STYLE_TRANSPARENT(0.699999988079);
#1043 = CURVE_STYLE('',#1044,POSITIVE_LENGTH_MEASURE(0.1),#1045);
#1044 = DRAUGHTING_PRE_DEFINED_CURVE_FONT('continuous');
#1045 = COLOUR_RGB('',9.803921802644E-02,9.803921802644E-02,
  9.803921802644E-02);
ENDSEC;
END-ISO-10303-21;
